<?xml version="1.0" encoding="UTF-8" standalone="no"?>
<!-- Created with Inkscape (http://www.inkscape.org/) -->

<svg
   xmlns:ns0="http://www.iki.fi/pav/software/textext/"
   xmlns:dc="http://purl.org/dc/elements/1.1/"
   xmlns:cc="http://creativecommons.org/ns#"
   xmlns:rdf="http://www.w3.org/1999/02/22-rdf-syntax-ns#"
   xmlns:svg="http://www.w3.org/2000/svg"
   xmlns="http://www.w3.org/2000/svg"
   xmlns:sodipodi="http://sodipodi.sourceforge.net/DTD/sodipodi-0.dtd"
   xmlns:inkscape="http://www.inkscape.org/namespaces/inkscape"
   width="247.99159mm"
   height="35.097664mm"
   viewBox="0 0 878.71036 124.3618"
   id="svg2"
   version="1.1"
   inkscape:version="0.91 r13725"
   sodipodi:docname="MileStones.svg">
  <sodipodi:namedview
     id="base"
     pagecolor="#ffffff"
     bordercolor="#666666"
     borderopacity="1.0"
     inkscape:pageopacity="0.0"
     inkscape:pageshadow="2"
     inkscape:zoom="0.7"
     inkscape:cx="385.91733"
     inkscape:cy="-37.28072"
     inkscape:document-units="px"
     inkscape:current-layer="layer1"
     showgrid="false"
     fit-margin-top="0"
     fit-margin-left="0"
     fit-margin-right="0"
     fit-margin-bottom="0"
     inkscape:window-width="1366"
     inkscape:window-height="744"
     inkscape:window-x="0"
     inkscape:window-y="24"
     inkscape:window-maximized="1" />
  <defs
     id="defs4">
    <marker
       inkscape:stockid="Arrow2Lend"
       orient="auto"
       refY="0"
       refX="0"
       id="marker7158"
       style="overflow:visible"
       inkscape:isstock="true">
      <path
         id="path7160"
         style="fill:#000000;fill-opacity:1;fill-rule:evenodd;stroke:#000000;stroke-width:0.625;stroke-linejoin:round;stroke-opacity:1"
         d="M 8.7185878,4.0337352 -2.2072895,0.01601326 8.7185884,-4.0017078 c -1.7454984,2.3720609 -1.7354408,5.6174519 -6e-7,8.035443 z"
         transform="matrix(-1.1,0,0,-1.1,-1.1,0)"
         inkscape:connector-curvature="0" />
    </marker>
    <marker
       inkscape:isstock="true"
       style="overflow:visible"
       id="marker5876"
       refX="0"
       refY="0"
       orient="auto"
       inkscape:stockid="Arrow2Lend">
      <path
         transform="matrix(-1.1,0,0,-1.1,-1.1,0)"
         d="M 8.7185878,4.0337352 -2.2072895,0.01601326 8.7185884,-4.0017078 c -1.7454984,2.3720609 -1.7354408,5.6174519 -6e-7,8.035443 z"
         style="fill:#000000;fill-opacity:1;fill-rule:evenodd;stroke:#000000;stroke-width:0.625;stroke-linejoin:round;stroke-opacity:1"
         id="path5878"
         inkscape:connector-curvature="0" />
    </marker>
    <marker
       inkscape:collect="always"
       inkscape:isstock="true"
       style="overflow:visible"
       id="Arrow2Lend"
       refX="0"
       refY="0"
       orient="auto"
       inkscape:stockid="Arrow2Lend">
      <path
         transform="matrix(-1.1,0,0,-1.1,-1.1,0)"
         d="M 8.7185878,4.0337352 -2.2072895,0.01601326 8.7185884,-4.0017078 c -1.7454984,2.3720609 -1.7354408,5.6174519 -6e-7,8.035443 z"
         style="fill:#000000;fill-opacity:1;fill-rule:evenodd;stroke:#000000;stroke-width:0.625;stroke-linejoin:round;stroke-opacity:1"
         id="path4949"
         inkscape:connector-curvature="0" />
    </marker>
  </defs>
  <metadata
     id="metadata7">
    <rdf:RDF>
      <cc:Work
         rdf:about="">
        <dc:format>image/svg+xml</dc:format>
        <dc:type
           rdf:resource="http://purl.org/dc/dcmitype/StillImage" />
        <dc:title></dc:title>
      </cc:Work>
    </rdf:RDF>
  </metadata>
  <g
     transform="translate(-137.542,-635.88303)"
     id="layer1"
     inkscape:groupmode="layer"
     inkscape:label="Layer 1">
    <text
       sodipodi:linespacing="125%"
       id="text3338"
       y="415.21933"
       x="132.85715"
       style="font-style:normal;font-weight:normal;font-size:40px;line-height:125%;font-family:sans-serif;letter-spacing:0px;word-spacing:0px;fill:#000000;fill-opacity:1;stroke:none;stroke-width:1px;stroke-linecap:butt;stroke-linejoin:miter;stroke-opacity:1"
       xml:space="preserve"><tspan
         y="415.21933"
         x="132.85715"
         id="tspan3340"
         sodipodi:role="line" /></text>
    <a
       transform="matrix(1.7186911,0,0,1.6455816,-694.61043,-229.0018)"
       id="a5900"
       style="fill:#ffff00">
      <rect
         style="opacity:1;fill:#ffff00;stroke:#000000;stroke-width:0.76044261;stroke-miterlimit:4;stroke-dasharray:none;stroke-opacity:1"
         id="rect4161-7"
         width="104.6291"
         height="67.853783"
         x="484.55823"
         y="530.44781" />
      <text
         xml:space="preserve"
         style="font-style:normal;font-weight:normal;font-size:40px;line-height:125%;font-family:sans-serif;letter-spacing:0px;word-spacing:0px;fill:#ffff00;fill-opacity:1;stroke:none;stroke-width:1px;stroke-linecap:butt;stroke-linejoin:miter;stroke-opacity:1"
         x="519.479"
         y="574.87122"
         id="text5079"
         sodipodi:linespacing="125%"><tspan
           sodipodi:role="line"
           id="tspan5081"
           x="519.479"
           y="574.87122" /></text>
    </a>
    <path
       inkscape:connector-curvature="3"
       inkscape:connector-type="polyline"
       id="path4920"
       d="m 674.14925,695.8189 161.68025,0.99189"
       style="display:inline;fill:#ff2a2a;fill-rule:evenodd;stroke:#000000;stroke-width:1px;stroke-linecap:butt;stroke-linejoin:miter;stroke-opacity:1;marker-end:url(#Arrow2Lend)"
       inkscape:connection-start="#a5900-3"
       inkscape:connection-end="#a5900-3-3" />
    <path
       inkscape:connector-curvature="3"
       inkscape:connector-type="polyline"
       id="path7124"
       d="m 318.02058,698.56035 163.5444,-2.11446"
       style="display:inline;fill:none;fill-rule:evenodd;stroke:#000000;stroke-width:1px;stroke-linecap:butt;stroke-linejoin:miter;stroke-opacity:1;marker-end:url(#marker7158)"
       inkscape:connection-start="#a5900"
       inkscape:connection-end="#a5900-3" />
    <a
       transform="matrix(1.8406378,0,0,1.8121108,-410.33121,-324.63296)"
       id="a5900-3"
       style="fill:#00ffff">
      <rect
         style="opacity:1;fill:#00ffff;stroke:#000000;stroke-width:0.76044261;stroke-miterlimit:4;stroke-dasharray:none;stroke-opacity:1"
         id="rect4161-7-6"
         width="104.6291"
         height="67.853783"
         x="484.55823"
         y="530.44781" />
      <text
         xml:space="preserve"
         style="font-style:normal;font-weight:normal;font-size:40px;line-height:125%;font-family:sans-serif;letter-spacing:0px;word-spacing:0px;fill:#00ffff;fill-opacity:1;stroke:none;stroke-width:1px;stroke-linecap:butt;stroke-linejoin:miter;stroke-opacity:1"
         x="519.479"
         y="574.87122"
         id="text5079-7"
         sodipodi:linespacing="125%"><tspan
           sodipodi:role="line"
           id="tspan5081-5"
           x="519.479"
           y="574.87122" /></text>
    </a>
    <path
       style="fill:none;fill-rule:evenodd;stroke:#000000;stroke-width:1px;stroke-linecap:butt;stroke-linejoin:miter;stroke-opacity:1"
       d="m 576.42854,695.21939 0,0"
       id="path6242"
       inkscape:connector-type="polyline"
       inkscape:connector-curvature="0"
       inkscape:connection-start="#a5900-3"
       inkscape:connection-end="#a5900-3" />
    <a
       transform="matrix(1.7181606,0,0,1.7920246,3.2806489,-314.01114)"
       id="a5900-3-3"
       style="fill:#00ff00">
      <rect
         style="opacity:1;fill:#00ff00;stroke:#000000;stroke-width:0.76044261;stroke-miterlimit:4;stroke-dasharray:none;stroke-opacity:1"
         id="rect4161-7-6-5"
         width="104.6291"
         height="67.853783"
         x="484.55823"
         y="530.44781" />
      <text
         xml:space="preserve"
         style="font-style:normal;font-weight:normal;font-size:40px;line-height:125%;font-family:sans-serif;letter-spacing:0px;word-spacing:0px;fill:#00ff00;fill-opacity:1;stroke:none;stroke-width:1px;stroke-linecap:butt;stroke-linejoin:miter;stroke-opacity:1"
         x="519.479"
         y="574.87122"
         id="text5079-7-6"
         sodipodi:linespacing="125%"><tspan
           sodipodi:role="line"
           id="tspan5081-5-2"
           x="519.479"
           y="574.87122" /></text>
    </a>
  </g>
  <g
     inkscape:groupmode="layer"
     id="layer2"
     inkscape:label="Layer 2"
     transform="translate(-137.542,-327.61531)">
    <g
       ns0:preamble=""
       ns0:text="Benchmarking;\\\\\nAdd cookbooks"
       word-spacing="normal"
       letter-spacing="normal"
       font-size-adjust="none"
       font-stretch="normal"
       font-weight="normal"
       font-variant="normal"
       font-style="normal"
       stroke-miterlimit="10.433"
       xml:space="preserve"
       transform="matrix(2.2748766,0,0,-2.7795418,344.04993,2211.9687)"
       id="g5964"
       style="font-style:normal;font-variant:normal;font-weight:normal;font-stretch:normal;letter-spacing:normal;word-spacing:normal;text-anchor:start;fill:none;fill-opacity:1;fill-rule:evenodd;stroke:#000000;stroke-linecap:butt;stroke-linejoin:miter;stroke-miterlimit:10.43299961;stroke-dasharray:none;stroke-dashoffset:0;stroke-opacity:1"><path
         id="path5966"
         d="m 227.99,660.79 0.09,0.02 0.09,0.02 0.09,0.02 0.08,0.03 0.09,0.03 0.08,0.03 0.08,0.03 0.07,0.04 0.08,0.04 0.07,0.04 0.07,0.04 0.06,0.04 0.07,0.05 0.06,0.05 0.06,0.04 0.05,0.06 0.06,0.05 0.05,0.05 0.05,0.06 0.04,0.05 0.04,0.06 0.04,0.06 0.04,0.06 0.03,0.06 0.02,0.07 0.03,0.06 0.02,0.07 0.02,0.06 0.01,0.07 0.01,0.07 0.01,0.06 0,0.07 c 0,0.87 -0.92,1.69 -2.21,1.69 l -0.07,-0.31 c 0.96,0 1.31,-0.85 1.31,-1.38 0,-0.63 -0.48,-1.47 -1.59,-1.47 l -1.45,0 0,-0.22 1.88,0 c 0.98,0 1.4,-0.93 1.4,-1.59 0,-0.71 -0.52,-1.53 -1.54,-1.53 l 0,0 -1.25,0 c -0.47,0 -0.49,0.07 -0.49,0.4 l 0,2.72 0,0.22 0,2.45 c 0,0.33 0.02,0.4 0.49,0.4 l 1.24,0 0.07,0.31 -3.65,0 0,-0.31 0.24,0 c 0.77,0 0.79,-0.11 0.79,-0.47 l 0,-5.25 c 0,-0.36 -0.02,-0.47 -0.79,-0.47 l -0.24,0 0,-0.31 3.91,0 c 1.32,0 2.22,0.89 2.22,1.83 0,0.86 -0.82,1.61 -1.93,1.73 z"
         inkscape:connector-curvature="0"
         style="fill:#000000;stroke-width:0" /><path
         id="path5968"
         d="m 231.6,659.53 0.01,0.21 c 0.06,1.49 0.89,1.74 1.23,1.74 1.03,0 1.13,-1.35 1.13,-1.74 l -2.36,0 -0.01,-0.21 2.78,0 c 0.22,0 0.24,0 0.24,0.21 0,0.99 -0.53,1.96 -1.78,1.96 -1.15,0 -2.07,-1.03 -2.07,-2.28 0,-1.33 1.05,-2.3 2.19,-2.3 1.22,0 1.66,1.11 1.66,1.3 0,0.1 -0.08,0.12 -0.13,0.12 -0.09,0 -0.11,-0.06 -0.12,-0.14 -0.35,-1.03 -1.25,-1.03 -1.35,-1.03 -0.5,0 -0.9,0.3 -1.12,0.67 -0.3,0.48 -0.3,1.13 -0.3,1.49 z"
         inkscape:connector-curvature="0"
         style="fill:#000000;stroke-width:0" /><path
         id="path5970"
         d="m 236.01,660.66 0,-2.67 c 0,-0.45 -0.11,-0.45 -0.78,-0.45 l 0,-0.31 c 0.35,0.01 0.86,0.03 1.13,0.03 0.26,0 0.78,-0.02 1.12,-0.03 l 0,0.31 c -0.67,0 -0.78,0 -0.78,0.45 l 0,1.83 c 0,1.04 0.71,1.6 1.34,1.6 0.63,0 0.74,-0.54 0.74,-1.11 l 0,-2.32 c 0,-0.45 -0.11,-0.45 -0.78,-0.45 l 0,-0.31 c 0.35,0.01 0.86,0.03 1.13,0.03 0.26,0 0.78,-0.02 1.11,-0.03 l 0,0.31 c -0.51,0 -0.76,0 -0.77,0.3 l 0,1.9 c 0,0.86 0,1.17 -0.31,1.53 -0.14,0.17 -0.47,0.37 -1.05,0.37 -0.72,0 -1.19,-0.43 -1.47,-1.05 l 0,1.05 -1.41,-0.11 0,-0.31 c 0.7,0 0.78,-0.07 0.78,-0.56 z"
         inkscape:connector-curvature="0"
         style="fill:#000000;stroke-width:0" /><path
         id="path5972"
         d="m 241.62,659.4 0,0.08 0,0.07 0,0.07 0.01,0.07 0,0.07 0.01,0.07 0,0.06 0.01,0.07 0.01,0.06 0.01,0.06 0.01,0.06 0.01,0.06 0.03,0.1 0.03,0.11 0.04,0.1 0.03,0.09 0.04,0.08 0.04,0.08 0.05,0.08 0.04,0.07 0.05,0.06 0.05,0.06 0.05,0.06 0.05,0.05 0.06,0.05 0.05,0.04 0.06,0.04 0.06,0.03 0.05,0.03 0.06,0.03 0.05,0.02 0.06,0.02 0.06,0.01 0.05,0.02 0.06,0.01 0.05,0 0.05,0.01 0.05,0 c 0.09,0 0.72,-0.01 1.07,-0.37 -0.41,-0.03 -0.47,-0.33 -0.47,-0.46 0,-0.26 0.18,-0.46 0.46,-0.46 0.26,0 0.46,0.17 0.46,0.47 0,0.68 -0.76,1.07 -1.53,1.07 -1.24,0 -2.16,-1.08 -2.16,-2.32 0,-1.27 0.98,-2.26 2.14,-2.26 1.34,0 1.66,1.2 1.66,1.3 0,0.1 -0.1,0.1 -0.13,0.1 -0.09,0 -0.11,-0.04 -0.14,-0.1 -0.28,-0.93 -0.93,-1.05 -1.3,-1.05 -0.53,0 -1.4,0.43 -1.4,2.03 z"
         inkscape:connector-curvature="0"
         style="fill:#000000;stroke-width:0" /><path
         id="path5974"
         d="m 245.69,657.99 0,-0.02 0,-0.02 0,-0.04 0,-0.03 0,-0.04 -0.01,-0.03 0,-0.03 -0.01,-0.02 0,-0.03 -0.01,-0.02 -0.01,-0.02 -0.01,-0.02 -0.02,-0.02 -0.01,-0.02 -0.02,-0.01 -0.02,-0.01 -0.02,-0.01 -0.02,-0.01 -0.02,-0.01 -0.03,-0.01 -0.02,-0.01 -0.04,0 -0.03,-0.01 -0.03,0 -0.02,0 -0.02,0 -0.02,0 -0.02,0 -0.02,-0.01 -0.02,0 -0.03,0 -0.02,0 -0.02,0 -0.03,0 -0.02,0 -0.03,0 -0.03,0 -0.03,0 -0.02,0 -0.03,0 -0.03,0 -0.03,0 0,-0.31 c 0.34,0.01 0.85,0.03 1.12,0.03 0.26,0 0.78,-0.02 1.12,-0.03 l 0,0.31 c -0.67,0 -0.78,0 -0.78,0.45 l 0,1.83 c 0,1.04 0.71,1.6 1.35,1.6 0.62,0 0.73,-0.54 0.73,-1.11 l 0,-2.32 c 0,-0.45 -0.11,-0.45 -0.77,-0.45 l 0,-0.31 c 0.35,0.01 0.85,0.03 1.12,0.03 0.26,0 0.78,-0.02 1.12,-0.03 l 0,0.31 c -0.52,0 -0.77,0 -0.78,0.3 l 0,1.9 c 0,0.86 0,1.17 -0.31,1.53 -0.14,0.17 -0.47,0.37 -1.04,0.37 -0.84,0 -1.28,-0.6 -1.45,-0.98 l 0,3.49 -1.43,-0.11 0,-0.31 c 0.69,0 0.77,-0.07 0.77,-0.56 z"
         inkscape:connector-curvature="0"
         style="fill:#000000;stroke-width:0" /><path
         id="path5976"
         d="m 251.23,660.66 0,-2.67 c 0,-0.45 -0.11,-0.45 -0.78,-0.45 l 0,-0.31 c 0.35,0.01 0.86,0.03 1.13,0.03 0.26,0 0.77,-0.02 1.11,-0.03 l 0,0.31 c -0.67,0 -0.77,0 -0.77,0.45 l 0,1.83 c 0,1.04 0.7,1.6 1.34,1.6 0.63,0 0.74,-0.54 0.74,-1.11 l 0,-2.32 c 0,-0.45 -0.11,-0.45 -0.78,-0.45 l 0,-0.31 c 0.35,0.01 0.86,0.03 1.13,0.03 0.26,0 0.77,-0.02 1.11,-0.03 l 0,0.31 c -0.67,0 -0.78,0 -0.78,0.45 l 0,1.83 c 0,1.04 0.71,1.6 1.35,1.6 0.63,0 0.74,-0.54 0.74,-1.11 l 0,-2.32 c 0,-0.45 -0.11,-0.45 -0.78,-0.45 l 0,-0.31 c 0.35,0.01 0.86,0.03 1.13,0.03 0.26,0 0.77,-0.02 1.11,-0.03 l 0,0.31 c -0.52,0 -0.77,0 -0.78,0.3 l 0,1.9 c 0,0.86 0,1.17 -0.3,1.53 -0.14,0.17 -0.47,0.37 -1.05,0.37 -0.84,0 -1.28,-0.6 -1.44,-0.98 -0.14,0.87 -0.88,0.98 -1.33,0.98 -0.73,0 -1.2,-0.43 -1.47,-1.05 l 0,1.05 -1.41,-0.11 0,-0.31 c 0.7,0 0.78,-0.07 0.78,-0.56 z"
         inkscape:connector-curvature="0"
         style="fill:#000000;stroke-width:0" /><path
         id="path5978"
         d="m 261.75,657.99 0.01,-0.04 0,-0.03 0.01,-0.04 0.01,-0.04 0.01,-0.04 0.01,-0.03 0.01,-0.04 0.01,-0.04 0.02,-0.03 0.02,-0.04 0.01,-0.03 0.02,-0.03 0.02,-0.04 0.02,-0.03 0.03,-0.03 0.02,-0.03 0.03,-0.03 0.02,-0.02 0.03,-0.03 0.03,-0.02 0.03,-0.03 0.03,-0.02 0.03,-0.02 0.04,-0.02 0.03,-0.01 0.04,-0.02 0.03,-0.01 0.04,-0.01 0.04,-0.01 0.04,0 0.05,-0.01 0.04,0 c 0.21,0 0.82,0.14 0.82,0.95 l 0,0.56 -0.25,0 0,-0.56 c 0,-0.58 -0.25,-0.64 -0.36,-0.64 -0.33,0 -0.37,0.45 -0.37,0.5 l 0,1.99 c 0,0.42 0,0.81 -0.36,1.18 -0.39,0.39 -0.89,0.55 -1.36,0.55 -0.82,0 -1.51,-0.47 -1.51,-1.13 0,-0.3 0.2,-0.47 0.46,-0.47 0.28,0 0.46,0.2 0.46,0.46 0,0.12 -0.05,0.45 -0.51,0.46 0.27,0.35 0.76,0.46 1.08,0.46 0.48,0 1.05,-0.39 1.05,-1.28 l 0,-0.37 0,-0.21 0,-0.99 c 0,-0.95 -0.72,-1.29 -1.16,-1.29 -0.49,0 -0.9,0.35 -0.9,0.85 0,0.55 0.42,1.37 2.06,1.43 l 0,0 0,0.21 c -0.51,-0.03 -1.2,-0.06 -1.83,-0.36 -0.75,-0.33 -1,-0.85 -1,-1.29 0,-0.81 0.97,-1.06 1.6,-1.06 0.66,0 1.11,0.4 1.3,0.87 z"
         inkscape:connector-curvature="0"
         style="fill:#000000;stroke-width:0" /><path
         id="path5980"
         d="m 265.08,660.54 0,1.1 -1.39,-0.11 0,-0.31 c 0.7,0 0.78,-0.07 0.78,-0.56 l 0,-2.67 c 0,-0.45 -0.11,-0.45 -0.78,-0.45 l 0,-0.31 c 0.39,0.01 0.86,0.03 1.14,0.03 0.4,0 0.87,0 1.27,-0.03 l 0,0.31 -0.21,0 c -0.74,0 -0.76,0.11 -0.76,0.47 l 0,1.53 c 0,0.99 0.42,1.88 1.17,1.88 0.07,0 0.09,0 0.11,-0.01 -0.03,-0.01 -0.23,-0.13 -0.23,-0.39 0,-0.28 0.21,-0.43 0.43,-0.43 0.18,0 0.43,0.12 0.43,0.44 0,0.32 -0.31,0.61 -0.74,0.61 -0.72,0 -1.08,-0.67 -1.22,-1.1 z"
         inkscape:connector-curvature="0"
         style="fill:#000000;stroke-width:0" /><path
         id="path5982"
         d="m 268.38,657.99 0,-0.02 0,-0.02 0,-0.04 0,-0.03 -0.01,-0.04 0,-0.03 -0.01,-0.03 0,-0.02 -0.01,-0.03 -0.01,-0.02 -0.01,-0.02 -0.01,-0.02 -0.01,-0.02 -0.02,-0.02 -0.01,-0.01 -0.02,-0.01 -0.02,-0.01 -0.02,-0.01 -0.03,-0.01 -0.02,-0.01 -0.03,-0.01 -0.03,0 -0.03,-0.01 -0.04,0 -0.02,0 -0.02,0 -0.02,0 -0.02,0 -0.02,-0.01 -0.02,0 -0.02,0 -0.03,0 -0.02,0 -0.02,0 -0.03,0 -0.03,0 -0.02,0 -0.03,0 -0.03,0 -0.03,0 -0.03,0 -0.03,0 0,-0.31 c 0.33,0.01 0.8,0.03 1.09,0.03 0.3,0 0.7,-0.01 1.09,-0.03 l 0,0.31 c -0.66,0 -0.77,0 -0.77,0.45 l 0,1.03 0.63,0.54 c 0.77,-1.05 1.19,-1.61 1.19,-1.79 0,-0.19 -0.17,-0.23 -0.36,-0.23 l 0,-0.31 c 0.28,0.01 0.87,0.03 1.08,0.03 0.29,0 0.57,-0.01 0.86,-0.03 l 0,0.31 c -0.36,0 -0.58,0 -0.96,0.53 l -1.27,1.78 c -0.01,0.02 -0.06,0.08 -0.06,0.11 0,0.04 0.71,0.64 0.81,0.72 0.63,0.51 1.05,0.53 1.25,0.54 l 0,0.31 c -0.29,-0.03 -0.41,-0.03 -0.69,-0.03 -0.36,0 -0.98,0.02 -1.12,0.03 l 0,-0.31 c 0.19,-0.01 0.29,-0.12 0.29,-0.25 0,-0.2 -0.14,-0.32 -0.22,-0.39 l -1.4,-1.22 0,4.79 -1.44,-0.11 0,-0.31 c 0.7,0 0.78,-0.07 0.78,-0.56 z"
         inkscape:connector-curvature="0"
         style="fill:#000000;stroke-width:0" /><path
         id="path5984"
         d="m 274.34,661.64 -1.39,-0.11 0,-0.31 c 0.65,0 0.74,-0.06 0.74,-0.55 l 0,-2.68 c 0,-0.45 -0.11,-0.45 -0.78,-0.45 l 0,-0.31 c 0.32,0.01 0.86,0.03 1.1,0.03 0.34,0 0.69,-0.02 1.03,-0.03 l 0,0.31 c -0.66,0 -0.7,0.05 -0.7,0.44 z"
         inkscape:connector-curvature="0"
         style="fill:#000000;stroke-width:0" /><path
         id="path5986"
         d="m 274.38,663.37 0,0.03 0,0.03 0,0.03 -0.01,0.02 0,0.03 -0.01,0.03 -0.01,0.02 -0.01,0.03 -0.01,0.02 -0.01,0.02 -0.02,0.02 -0.01,0.03 -0.02,0.02 -0.01,0.02 -0.02,0.01 -0.02,0.02 -0.01,0.02 -0.02,0.02 -0.02,0.01 -0.03,0.01 -0.02,0.02 -0.02,0.01 -0.02,0.01 -0.02,0.01 -0.03,0.01 -0.02,0.01 -0.03,0 -0.02,0.01 -0.03,0 -0.02,0 -0.03,0.01 -0.02,0 c -0.31,0 -0.53,-0.27 -0.53,-0.53 0,-0.27 0.22,-0.53 0.53,-0.53 0.27,0 0.52,0.21 0.52,0.53 z"
         inkscape:connector-curvature="0"
         style="fill:#000000;stroke-width:0" /><path
         id="path5988"
         d="m 276.44,660.66 0,-2.67 c 0,-0.45 -0.11,-0.45 -0.77,-0.45 l 0,-0.31 c 0.35,0.01 0.85,0.03 1.12,0.03 0.26,0 0.78,-0.02 1.12,-0.03 l 0,0.31 c -0.67,0 -0.78,0 -0.78,0.45 l 0,1.83 c 0,1.04 0.71,1.6 1.35,1.6 0.62,0 0.73,-0.54 0.73,-1.11 l 0,-2.32 c 0,-0.45 -0.11,-0.45 -0.77,-0.45 l 0,-0.31 c 0.35,0.01 0.85,0.03 1.12,0.03 0.26,0 0.78,-0.02 1.12,-0.03 l 0,0.31 c -0.52,0 -0.77,0 -0.78,0.3 l 0,1.9 c 0,0.86 0,1.17 -0.31,1.53 -0.14,0.17 -0.47,0.37 -1.04,0.37 -0.73,0 -1.2,-0.43 -1.48,-1.05 l 0,1.05 -1.4,-0.11 0,-0.31 c 0.69,0 0.77,-0.07 0.77,-0.56 z"
         inkscape:connector-curvature="0"
         style="fill:#000000;stroke-width:0" /><path
         id="path5990"
         d="m 281.94,658.56 0,0 0,0.01 0,0 0,0.01 0,0.01 0,0.01 0,0.01 0,0.01 0,0.01 0,0.01 0.01,0.02 0,0.01 0,0.02 0,0.01 0.01,0.02 0,0.01 0,0.02 0.01,0.02 0,0.01 0.01,0.02 0.01,0.02 0,0.02 0.01,0.02 0.01,0.01 0.01,0.02 0.01,0.02 0.01,0.02 0.01,0.02 0.01,0.02 0.02,0.02 0.01,0.02 0.02,0.02 c 0.39,-0.28 0.79,-0.31 0.98,-0.31 l 0,0.23 c -0.86,0 -0.86,0.99 -0.86,1.22 0,0.27 0.01,0.59 0.16,0.84 0.08,0.12 0.31,0.4 0.7,0.4 0.87,0 0.87,-1 0.87,-1.23 0,-0.27 -0.01,-0.59 -0.16,-0.84 -0.08,-0.12 -0.31,-0.39 -0.71,-0.39 l 0,0 0,-0.23 c 0.93,0 1.62,0.68 1.62,1.45 0,0.37 -0.16,0.74 -0.41,0.97 0.36,0.34 0.72,0.39 0.9,0.39 0.02,0 0.07,0 0.1,-0.01 -0.11,-0.04 -0.16,-0.15 -0.16,-0.27 0,-0.17 0.13,-0.29 0.28,-0.29 0.1,0 0.29,0.07 0.29,0.3 0,0.17 -0.11,0.49 -0.5,0.49 -0.2,0 -0.64,-0.06 -1.06,-0.47 -0.42,0.33 -0.84,0.36 -1.06,0.36 -0.92,0 -1.61,-0.69 -1.61,-1.46 0,-0.44 0.22,-0.82 0.47,-1.02 -0.13,-0.15 -0.31,-0.48 -0.31,-0.83 0,-0.31 0.13,-0.69 0.44,-0.89 -0.6,-0.17 -0.92,-0.6 -0.92,-0.99 0,-0.72 0.99,-1.27 2.2,-1.27 l 0.01,0.23 c -1,0 -1.69,0.51 -1.69,1.04 0,0.45 0.38,0.82 0.82,0.85 l 0.58,0 c 0.86,0 1.98,0 1.98,-0.85 0,-0.54 -0.71,-1.04 -1.69,-1.04 l 0,0 -0.01,-0.23 c 1.18,0 2.22,0.51 2.22,1.29 0,0.34 -0.15,0.85 -0.65,1.13 -0.53,0.28 -1.11,0.28 -1.72,0.28 -0.25,0 -0.67,0 -0.74,0.01 -0.32,0.04 -0.53,0.35 -0.53,0.67 z"
         inkscape:connector-curvature="0"
         style="fill:#000000;stroke-width:0" /><path
         id="path5992"
         d="m 287.77,661 0,0.02 0,0.03 0,0.03 -0.01,0.02 0,0.03 -0.01,0.02 -0.01,0.03 -0.01,0.02 -0.01,0.03 -0.01,0.02 -0.01,0.02 -0.02,0.02 -0.01,0.02 -0.02,0.02 -0.01,0.02 -0.02,0.02 -0.02,0.02 -0.02,0.01 -0.02,0.02 -0.02,0.02 -0.02,0.01 -0.02,0.01 -0.03,0.01 -0.02,0.01 -0.02,0.01 -0.03,0.01 -0.02,0.01 -0.03,0.01 -0.02,0 -0.03,0 -0.03,0.01 -0.02,0 c -0.29,0 -0.53,-0.24 -0.53,-0.53 0,-0.29 0.24,-0.53 0.53,-0.53 0.29,0 0.52,0.24 0.52,0.53 z"
         inkscape:connector-curvature="0"
         style="fill:#000000;stroke-width:0" /><path
         id="path5994"
         d="m 287.59,657.34 0,-0.03 0,-0.03 0,-0.03 -0.01,-0.03 0,-0.04 0,-0.04 0,-0.05 0,-0.04 -0.01,-0.05 0,-0.05 -0.01,-0.05 -0.01,-0.05 -0.01,-0.06 -0.01,-0.06 -0.01,-0.05 -0.01,-0.06 -0.02,-0.06 -0.02,-0.07 -0.02,-0.06 -0.02,-0.06 -0.02,-0.07 -0.03,-0.06 -0.03,-0.07 -0.03,-0.07 -0.04,-0.07 -0.04,-0.07 -0.04,-0.06 -0.04,-0.07 -0.05,-0.07 -0.05,-0.07 -0.05,-0.07 -0.06,-0.07 c -0.07,-0.08 -0.07,-0.1 -0.07,-0.13 0,-0.07 0.05,-0.11 0.1,-0.11 0.11,0 0.82,0.8 0.82,1.95 0,0.29 -0.01,1.03 -0.55,1.03 -0.35,0 -0.53,-0.27 -0.53,-0.53 0,-0.26 0.17,-0.53 0.53,-0.53 0.05,0 0.07,0 0.08,0.01 0.07,0.01 0.18,0.03 0.26,0.1 z"
         inkscape:connector-curvature="0"
         style="fill:#000000;stroke-width:0" /><path
         id="path5996"
         d="m 227.4,652.21 -0.01,0.01 0,0.01 -0.01,0.02 0,0.01 0,0.01 -0.01,0.01 0,0.01 -0.01,0.01 0,0.01 -0.01,0 0,0.01 0,0.01 -0.01,0.01 0,0.01 -0.01,0 -0.01,0.01 0,0.01 -0.01,0 0,0.01 -0.01,0 -0.01,0.01 -0.01,0 -0.01,0 -0.01,0.01 -0.01,0 -0.01,0 -0.01,0.01 -0.01,0 -0.01,0 -0.01,0 -0.02,0 0,0 -0.01,0 c -0.16,0 -0.19,-0.06 -0.24,-0.2 l -2.06,-5.96 c -0.18,-0.5 -0.58,-0.65 -1.12,-0.66 l 0,-0.31 c 0.23,0.01 0.66,0.03 1.02,0.03 0.31,0 0.82,-0.02 1.14,-0.03 l 0,0.31 c -0.5,0 -0.74,0.25 -0.74,0.5 0,0.03 0.01,0.13 0.02,0.15 l 0.45,1.31 0.11,0.31 1.12,3.24 1.12,-3.24 -2.24,0 -0.11,-0.31 2.46,0 0.53,-1.52 c 0.01,-0.05 0.03,-0.11 0.03,-0.14 0,-0.3 -0.56,-0.3 -0.82,-0.3 l 0,-0.31 c 0.36,0.03 1.05,0.03 1.43,0.03 0.43,0 0.89,-0.01 1.31,-0.03 l 0,0.31 -0.18,0 c -0.6,0 -0.74,0.07 -0.85,0.39 z"
         inkscape:connector-curvature="0"
         style="fill:#000000;stroke-width:0" /><path
         id="path5998"
         d="m 234.69,645.83 0,-0.66 1.46,0.11 0,0.31 c -0.69,0 -0.77,0.07 -0.77,0.55 l 0,6.05 -1.44,-0.11 0,-0.31 c 0.7,0 0.78,-0.07 0.78,-0.55 l 0,-2.16 c -0.29,0.36 -0.72,0.62 -1.26,0.62 l 0.04,-0.22 c 0.35,0 0.77,-0.15 1.08,-0.6 0.11,-0.16 0.11,-0.19 0.11,-0.37 l 0,0 0,-2.04 c 0,-0.18 0,-0.2 -0.11,-0.36 -0.3,-0.48 -0.75,-0.7 -1.18,-0.7 -0.44,0 -0.8,0.26 -1.04,0.64 -0.26,0.4 -0.29,0.97 -0.29,1.38 0,0.37 0.02,0.97 0.31,1.41 0.21,0.31 0.58,0.64 1.12,0.64 l -0.04,0.22 c -1.17,0 -2.22,-0.97 -2.22,-2.26 0,-1.27 0.98,-2.25 2.11,-2.25 0.64,0 1.09,0.34 1.34,0.66 z"
         inkscape:connector-curvature="0"
         style="fill:#000000;stroke-width:0" /><path
         id="path6000"
         d="m 240.22,645.83 0,-0.66 1.47,0.11 0,0.31 c -0.7,0 -0.78,0.07 -0.78,0.55 l 0,6.05 -1.43,-0.11 0,-0.31 c 0.69,0 0.77,-0.07 0.77,-0.55 l 0,-2.16 c -0.29,0.36 -0.71,0.62 -1.25,0.62 l 0.04,-0.22 c 0.35,0 0.76,-0.15 1.07,-0.6 0.11,-0.16 0.11,-0.19 0.11,-0.37 l 0,0 0,-2.04 c 0,-0.18 0,-0.2 -0.11,-0.36 -0.29,-0.48 -0.74,-0.7 -1.17,-0.7 -0.45,0 -0.81,0.26 -1.05,0.64 -0.26,0.4 -0.29,0.97 -0.29,1.38 0,0.37 0.02,0.97 0.31,1.41 0.21,0.31 0.59,0.64 1.13,0.64 l -0.04,0.22 c -1.18,0 -2.22,-0.97 -2.22,-2.26 0,-1.27 0.97,-2.25 2.11,-2.25 0.64,0 1.08,0.34 1.33,0.66 z"
         inkscape:connector-curvature="0"
         style="fill:#000000;stroke-width:0" /><path
         id="path6002"
         d="m 246.46,647.45 0,0.07 0,0.08 0.01,0.07 0,0.07 0.01,0.07 0,0.06 0.01,0.07 0.01,0.06 0.01,0.06 0.01,0.06 0.01,0.06 0.01,0.06 0.03,0.11 0.03,0.1 0.03,0.1 0.04,0.09 0.04,0.09 0.04,0.08 0.04,0.07 0.05,0.07 0.05,0.07 0.05,0.06 0.05,0.05 0.05,0.06 0.05,0.04 0.06,0.04 0.05,0.04 0.06,0.04 0.06,0.03 0.05,0.02 0.06,0.02 0.06,0.02 0.05,0.02 0.06,0.01 0.05,0.01 0.05,0.01 0.06,0 0.05,0 c 0.09,0 0.71,-0.01 1.06,-0.37 -0.41,-0.03 -0.47,-0.33 -0.47,-0.46 0,-0.25 0.18,-0.45 0.46,-0.45 0.26,0 0.46,0.17 0.46,0.46 0,0.68 -0.76,1.07 -1.52,1.07 -1.25,0 -2.17,-1.08 -2.17,-2.31 0,-1.28 0.99,-2.26 2.15,-2.26 1.33,0 1.65,1.19 1.65,1.29 0,0.1 -0.1,0.1 -0.13,0.1 -0.09,0 -0.11,-0.04 -0.13,-0.1 -0.29,-0.92 -0.94,-1.04 -1.3,-1.04 -0.53,0 -1.41,0.42 -1.41,2.03 z"
         inkscape:connector-curvature="0"
         style="fill:#000000;stroke-width:0" /><path
         id="path6004"
         d="m 254.41,647.41 0,0.12 -0.01,0.12 -0.01,0.11 -0.02,0.12 -0.03,0.11 -0.03,0.11 -0.03,0.11 -0.04,0.1 -0.05,0.11 -0.05,0.1 -0.05,0.09 -0.06,0.1 -0.06,0.09 -0.06,0.09 -0.07,0.08 -0.08,0.08 -0.07,0.08 -0.08,0.07 -0.09,0.07 -0.08,0.07 -0.09,0.06 -0.09,0.06 -0.1,0.05 -0.1,0.05 -0.1,0.04 -0.1,0.04 -0.1,0.03 -0.11,0.02 -0.11,0.02 -0.11,0.02 -0.11,0.01 -0.11,0 -0.01,-0.22 c 0.44,0 0.87,-0.22 1.13,-0.65 0.26,-0.42 0.26,-1 0.26,-1.38 0,-0.36 0,-0.9 -0.22,-1.34 -0.22,-0.44 -0.66,-0.73 -1.16,-0.73 l 0,0 c -0.43,0 -0.87,0.21 -1.14,0.67 -0.24,0.43 -0.24,1.04 -0.24,1.4 0,0.39 0,0.93 0.24,1.36 0.26,0.46 0.73,0.67 1.13,0.67 l 0.01,0.22 c -1.25,0 -2.21,-1.08 -2.21,-2.33 0,-1.29 1.04,-2.24 2.2,-2.24 1.21,0 2.21,0.97 2.21,2.24 z"
         inkscape:connector-curvature="0"
         style="fill:#000000;stroke-width:0" /><path
         id="path6006"
         d="m 259.67,647.41 0,0.12 -0.01,0.12 -0.02,0.11 -0.02,0.12 -0.02,0.11 -0.03,0.11 -0.03,0.11 -0.04,0.1 -0.05,0.11 -0.05,0.1 -0.05,0.09 -0.06,0.1 -0.06,0.09 -0.07,0.09 -0.07,0.08 -0.07,0.08 -0.08,0.08 -0.08,0.07 -0.08,0.07 -0.09,0.07 -0.08,0.06 -0.1,0.06 -0.09,0.05 -0.1,0.05 -0.1,0.04 -0.1,0.04 -0.11,0.03 -0.1,0.02 -0.11,0.02 -0.11,0.02 -0.11,0.01 -0.11,0 -0.01,-0.22 c 0.44,0 0.87,-0.22 1.12,-0.65 0.26,-0.42 0.26,-1 0.26,-1.38 0,-0.36 0,-0.9 -0.22,-1.34 -0.22,-0.44 -0.65,-0.73 -1.15,-0.73 l 0,0 c -0.43,0 -0.87,0.21 -1.14,0.67 -0.25,0.43 -0.25,1.04 -0.25,1.4 0,0.39 0,0.93 0.24,1.36 0.27,0.46 0.74,0.67 1.14,0.67 l 0.01,0.22 c -1.25,0 -2.21,-1.08 -2.21,-2.33 0,-1.29 1.03,-2.24 2.2,-2.24 1.2,0 2.21,0.97 2.21,2.24 z"
         inkscape:connector-curvature="0"
         style="fill:#000000;stroke-width:0" /><path
         id="path6008"
         d="m 261.01,646.03 0,-0.02 0,-0.02 0,-0.03 0,-0.04 0,-0.03 -0.01,-0.03 0,-0.03 -0.01,-0.03 0,-0.02 -0.01,-0.03 -0.01,-0.02 -0.01,-0.02 -0.02,-0.01 -0.01,-0.02 -0.02,-0.01 -0.01,-0.02 -0.02,-0.01 -0.03,-0.01 -0.02,-0.01 -0.03,0 -0.02,-0.01 -0.03,-0.01 -0.04,0 -0.03,0 -0.04,-0.01 -0.02,0 -0.02,0 -0.02,0 -0.02,0 -0.03,0 -0.02,0 -0.02,0 -0.03,0 -0.02,0 -0.03,0 -0.03,0 -0.03,0 -0.02,0 -0.03,0 -0.03,0 -0.03,0 0,-0.31 c 0.33,0.01 0.79,0.03 1.08,0.03 0.3,0 0.7,-0.01 1.1,-0.03 l 0,0.31 c -0.67,0 -0.78,0 -0.78,0.44 l 0,1.03 0.64,0.55 c 0.77,-1.06 1.18,-1.62 1.18,-1.79 0,-0.19 -0.16,-0.23 -0.35,-0.23 l 0,-0.31 c 0.28,0.01 0.86,0.03 1.07,0.03 0.29,0 0.58,-0.01 0.87,-0.03 l 0,0.31 c -0.37,0 -0.59,0 -0.97,0.52 l -1.26,1.79 c -0.01,0.02 -0.06,0.08 -0.06,0.11 0,0.04 0.7,0.64 0.8,0.71 0.63,0.51 1.05,0.53 1.26,0.54 l 0,0.31 c -0.29,-0.03 -0.42,-0.03 -0.7,-0.03 -0.36,0 -0.97,0.02 -1.11,0.03 l 0,-0.31 c 0.19,-0.01 0.29,-0.12 0.29,-0.25 0,-0.2 -0.15,-0.31 -0.22,-0.39 l -1.41,-1.21 0,4.78 -1.43,-0.11 0,-0.31 c 0.69,0 0.77,-0.07 0.77,-0.55 z"
         inkscape:connector-curvature="0"
         style="fill:#000000;stroke-width:0" /><path
         id="path6010"
         d="m 266.94,649.03 0,3.16 -1.44,-0.11 0,-0.31 c 0.7,0 0.78,-0.07 0.78,-0.55 l 0,-5.94 0.25,0 c 0.01,0.01 0.09,0.15 0.36,0.62 0.15,-0.23 0.56,-0.73 1.3,-0.73 l -0.04,0.22 c -0.45,0 -0.8,0.24 -1.04,0.6 -0.14,0.21 -0.14,0.24 -0.14,0.42 l 0,0 0,2.06 c 0,0.19 0,0.19 0.11,0.35 0.38,0.56 0.93,0.64 1.17,0.64 0.45,0 0.81,-0.26 1.05,-0.64 0.26,-0.4 0.29,-0.97 0.29,-1.38 0,-0.37 -0.02,-0.97 -0.31,-1.41 -0.21,-0.31 -0.59,-0.64 -1.13,-0.64 l 0.04,-0.22 c 1.19,0 2.22,0.97 2.22,2.26 0,1.27 -0.97,2.25 -2.11,2.25 -0.78,0 -1.2,-0.47 -1.36,-0.65 z"
         inkscape:connector-curvature="0"
         style="fill:#000000;stroke-width:0" /><path
         id="path6012"
         d="m 275.73,647.41 -0.01,0.12 0,0.12 -0.02,0.11 -0.02,0.12 -0.02,0.11 -0.03,0.11 -0.04,0.11 -0.04,0.1 -0.04,0.11 -0.05,0.1 -0.05,0.09 -0.06,0.1 -0.06,0.09 -0.07,0.09 -0.07,0.08 -0.07,0.08 -0.08,0.08 -0.08,0.07 -0.08,0.07 -0.09,0.07 -0.09,0.06 -0.09,0.06 -0.09,0.05 -0.1,0.05 -0.1,0.04 -0.1,0.04 -0.11,0.03 -0.1,0.02 -0.11,0.02 -0.11,0.02 -0.11,0.01 -0.11,0 -0.01,-0.22 c 0.43,0 0.86,-0.22 1.12,-0.65 0.26,-0.42 0.26,-1 0.26,-1.38 0,-0.36 0,-0.9 -0.22,-1.34 -0.22,-0.44 -0.66,-0.73 -1.15,-0.73 l 0,0 c -0.43,0 -0.87,0.21 -1.14,0.67 -0.25,0.43 -0.25,1.04 -0.25,1.4 0,0.39 0,0.93 0.24,1.36 0.27,0.46 0.74,0.67 1.14,0.67 l 0.01,0.22 c -1.25,0 -2.22,-1.08 -2.22,-2.33 0,-1.29 1.04,-2.24 2.21,-2.24 1.2,0 2.21,0.97 2.21,2.24 z"
         inkscape:connector-curvature="0"
         style="fill:#000000;stroke-width:0" /><path
         id="path6014"
         d="m 280.98,647.41 0,0.12 -0.01,0.12 -0.01,0.11 -0.02,0.12 -0.02,0.11 -0.03,0.11 -0.04,0.11 -0.04,0.1 -0.04,0.11 -0.05,0.1 -0.06,0.09 -0.05,0.1 -0.07,0.09 -0.06,0.09 -0.07,0.08 -0.07,0.08 -0.08,0.08 -0.08,0.07 -0.08,0.07 -0.09,0.07 -0.09,0.06 -0.09,0.06 -0.1,0.05 -0.09,0.05 -0.1,0.04 -0.11,0.04 -0.1,0.03 -0.11,0.02 -0.1,0.02 -0.11,0.02 -0.11,0.01 -0.12,0 -0.01,-0.22 c 0.44,0 0.87,-0.22 1.13,-0.65 0.26,-0.42 0.26,-1 0.26,-1.38 0,-0.36 0,-0.9 -0.22,-1.34 -0.22,-0.44 -0.66,-0.73 -1.16,-0.73 l 0,0 c -0.42,0 -0.86,0.21 -1.13,0.67 -0.25,0.43 -0.25,1.04 -0.25,1.4 0,0.39 0,0.93 0.24,1.36 0.27,0.46 0.74,0.67 1.13,0.67 l 0.01,0.22 c -1.24,0 -2.21,-1.08 -2.21,-2.33 0,-1.29 1.04,-2.24 2.2,-2.24 1.21,0 2.21,0.97 2.21,2.24 z"
         inkscape:connector-curvature="0"
         style="fill:#000000;stroke-width:0" /><path
         id="path6016"
         d="m 282.33,646.03 0,-0.02 0,-0.02 0,-0.03 0,-0.04 -0.01,-0.03 0,-0.03 -0.01,-0.03 0,-0.03 -0.01,-0.02 -0.01,-0.03 -0.01,-0.02 -0.01,-0.02 -0.01,-0.01 -0.02,-0.02 -0.01,-0.01 -0.02,-0.02 -0.02,-0.01 -0.02,-0.01 -0.03,-0.01 -0.02,0 -0.03,-0.01 -0.03,-0.01 -0.03,0 -0.04,0 -0.04,-0.01 -0.02,0 -0.02,0 -0.02,0 -0.02,0 -0.02,0 -0.03,0 -0.02,0 -0.02,0 -0.03,0 -0.03,0 -0.02,0 -0.03,0 -0.03,0 -0.03,0 -0.03,0 -0.03,0 0,-0.31 c 0.33,0.01 0.8,0.03 1.09,0.03 0.3,0 0.69,-0.01 1.09,-0.03 l 0,0.31 c -0.66,0 -0.77,0 -0.77,0.44 l 0,1.03 0.63,0.55 c 0.77,-1.06 1.19,-1.62 1.19,-1.79 0,-0.19 -0.17,-0.23 -0.36,-0.23 l 0,-0.31 c 0.28,0.01 0.87,0.03 1.08,0.03 0.29,0 0.57,-0.01 0.86,-0.03 l 0,0.31 c -0.37,0 -0.58,0 -0.96,0.52 l -1.27,1.79 c -0.01,0.02 -0.06,0.08 -0.06,0.11 0,0.04 0.71,0.64 0.81,0.71 0.63,0.51 1.04,0.53 1.25,0.54 l 0,0.31 c -0.28,-0.03 -0.41,-0.03 -0.69,-0.03 -0.36,0 -0.98,0.02 -1.12,0.03 l 0,-0.31 c 0.19,-0.01 0.29,-0.12 0.29,-0.25 0,-0.2 -0.14,-0.31 -0.22,-0.39 l -1.4,-1.21 0,4.78 -1.44,-0.11 0,-0.31 c 0.7,0 0.78,-0.07 0.78,-0.55 z"
         inkscape:connector-curvature="0"
         style="fill:#000000;stroke-width:0" /><path
         id="path6018"
         d="m 288.6,647.21 0.02,0 0.03,-0.01 0.03,0 0.03,-0.01 0.03,-0.01 0.04,-0.01 0.04,-0.01 0.04,-0.01 0.04,-0.01 0.04,-0.02 0.04,-0.01 0.05,-0.02 0.04,-0.02 0.04,-0.02 0.05,-0.02 0.04,-0.02 0.05,-0.03 0.04,-0.03 0.04,-0.03 0.04,-0.03 0.04,-0.04 0.03,-0.03 0.04,-0.04 0.03,-0.05 0.03,-0.04 0.01,-0.02 0.01,-0.03 0.01,-0.02 0.01,-0.03 0.01,-0.03 0.01,-0.02 0.01,-0.03 0.01,-0.03 0,-0.03 0.01,-0.03 0,-0.03 0.01,-0.03 0,-0.03 0,-0.04 c 0,-0.5 -0.35,-0.9 -1.13,-0.9 -0.83,0 -1.19,0.57 -1.38,1.41 -0.03,0.13 -0.04,0.17 -0.14,0.17 -0.13,0 -0.13,-0.07 -0.13,-0.25 l 0,-1.31 c 0,-0.17 0,-0.24 0.11,-0.24 0.05,0 0.06,0.01 0.25,0.2 0.02,0.02 0.02,0.04 0.2,0.23 0.44,-0.42 0.88,-0.43 1.09,-0.43 1.15,0 1.61,0.67 1.61,1.38 0,0.53 -0.3,0.83 -0.42,0.95 -0.33,0.32 -0.72,0.4 -1.14,0.48 -0.56,0.11 -1.22,0.24 -1.22,0.81 0,0.35 0.26,0.76 1.11,0.76 1.1,0 1.15,-0.89 1.17,-1.2 0.01,-0.09 0.1,-0.09 0.12,-0.09 0.13,0 0.13,0.05 0.13,0.23 l 0,1.01 c 0,0.17 0,0.24 -0.11,0.24 -0.05,0 -0.07,0 -0.2,-0.12 -0.03,-0.04 -0.13,-0.13 -0.17,-0.16 -0.38,0.28 -0.79,0.28 -0.94,0.28 -1.21,0 -1.59,-0.67 -1.59,-1.22 0,-0.35 0.16,-0.63 0.43,-0.85 0.32,-0.26 0.6,-0.32 1.31,-0.46 z"
         inkscape:connector-curvature="0"
         style="fill:#000000;stroke-width:0" /></g>    <g
       style="font-style:normal;font-variant:normal;font-weight:normal;font-stretch:normal;letter-spacing:normal;word-spacing:normal;text-anchor:start;fill:none;fill-opacity:1;fill-rule:evenodd;stroke:#000000;stroke-linecap:butt;stroke-linejoin:miter;stroke-miterlimit:10.43299961;stroke-dasharray:none;stroke-dashoffset:0;stroke-opacity:1"
       id="g5672"
       transform="matrix(1.9876743,0,0,-2.8736261,44.330964,2269.5975)"
       xml:space="preserve"
       stroke-miterlimit="10.433"
       font-style="normal"
       font-variant="normal"
       font-weight="normal"
       font-stretch="normal"
       font-size-adjust="none"
       letter-spacing="normal"
       word-spacing="normal"
       ns0:text="Implement carbon \\\\\nmodels A-CC, M-CC"
       ns0:preamble=""><path
         style="fill:#000000;stroke-width:0"
         inkscape:connector-curvature="0"
         d="m 225.67,663.26 0,0.03 0,0.03 0.01,0.03 0,0.03 0,0.03 0,0.03 0.01,0.02 0,0.02 0.01,0.03 0,0.02 0.01,0.02 0.01,0.02 0.02,0.01 0.01,0.02 0.02,0.01 0.02,0.02 0.02,0.01 0.02,0.01 0.01,0.01 0.02,0 0.01,0.01 0.02,0 0.01,0.01 0.02,0 0.02,0.01 0.01,0 0.02,0.01 0.02,0 0.02,0 0.02,0.01 0.02,0 0.03,0 0.02,0 0.02,0.01 0.03,0 0.02,0 0.03,0 0.03,0 0.03,0 0.03,0.01 0.03,0 0.03,0 0.04,0 0.03,0 0.03,0 0.04,0 0.26,0 0,0.31 c -0.35,-0.03 -1.14,-0.03 -1.51,-0.03 -0.39,0 -1.18,0 -1.53,0.03 l 0,-0.31 0.26,0 c 0.79,0 0.82,-0.11 0.82,-0.47 l 0,-5.25 c 0,-0.36 -0.03,-0.47 -0.82,-0.47 l -0.26,0 0,-0.31 c 0.35,0.03 1.14,0.03 1.52,0.03 0.38,0 1.17,0 1.52,-0.03 l 0,0.31 -0.26,0 c -0.79,0 -0.82,0.11 -0.82,0.47 z"
         id="path5674" /><path
         style="fill:#000000;stroke-width:0"
         inkscape:connector-curvature="0"
         d="m 228.13,660.66 0,-2.67 c 0,-0.45 -0.11,-0.45 -0.78,-0.45 l 0,-0.31 c 0.35,0.01 0.86,0.03 1.13,0.03 0.26,0 0.77,-0.02 1.11,-0.03 l 0,0.31 c -0.66,0 -0.77,0 -0.77,0.45 l 0,1.83 c 0,1.04 0.7,1.6 1.34,1.6 0.63,0 0.74,-0.54 0.74,-1.11 l 0,-2.32 c 0,-0.45 -0.11,-0.45 -0.78,-0.45 l 0,-0.31 c 0.35,0.01 0.86,0.03 1.13,0.03 0.26,0 0.77,-0.02 1.11,-0.03 l 0,0.31 c -0.66,0 -0.77,0 -0.77,0.45 l 0,1.83 c 0,1.04 0.7,1.6 1.34,1.6 0.63,0 0.74,-0.54 0.74,-1.11 l 0,-2.32 c 0,-0.45 -0.11,-0.45 -0.78,-0.45 l 0,-0.31 c 0.35,0.01 0.86,0.03 1.13,0.03 0.25,0 0.77,-0.02 1.11,-0.03 l 0,0.31 c -0.52,0 -0.76,0 -0.78,0.3 l 0,1.9 c 0,0.86 0,1.17 -0.3,1.53 -0.14,0.17 -0.47,0.37 -1.05,0.37 -0.84,0 -1.27,-0.6 -1.44,-0.98 -0.14,0.87 -0.88,0.98 -1.33,0.98 -0.73,0 -1.19,-0.43 -1.47,-1.05 l 0,1.05 -1.41,-0.11 0,-0.31 c 0.7,0 0.78,-0.07 0.78,-0.56 z"
         id="path5676" /><path
         style="fill:#000000;stroke-width:0"
         inkscape:connector-curvature="0"
         d="m 237.05,660.98 0,0.66 -1.44,-0.11 0,-0.31 c 0.71,0 0.78,-0.06 0.78,-0.5 l 0,-4.66 c 0,-0.45 -0.11,-0.45 -0.78,-0.45 l 0,-0.31 c 0.34,0.01 0.86,0.03 1.12,0.03 0.27,0 0.78,-0.02 1.13,-0.03 l 0,0.31 c -0.67,0 -0.78,0 -0.78,0.45 l 0,1.67 0,0.09 0.14,0.13 c -0.14,0.21 -0.14,0.22 -0.14,0.42 l 0,0 0,2.22 c 0.29,0.51 0.78,0.8 1.28,0.8 0.73,0 1.34,-0.88 1.34,-2.01 0,-1.2 -0.7,-2.04 -1.44,-2.04 -0.39,0 -0.77,0.2 -1.04,0.61 l -0.14,-0.13 c 0.05,-0.16 0.47,-0.7 1.22,-0.7 1.19,0 2.23,0.98 2.23,2.26 0,1.27 -0.97,2.26 -2.09,2.26 -0.77,0 -1.19,-0.44 -1.39,-0.66 z"
         id="path5678" /><path
         style="fill:#000000;stroke-width:0"
         inkscape:connector-curvature="0"
         d="m 242.63,664.15 -1.43,-0.11 0,-0.31 c 0.7,0 0.78,-0.07 0.78,-0.56 l 0,-5.18 c 0,-0.45 -0.11,-0.45 -0.78,-0.45 l 0,-0.31 c 0.33,0.01 0.86,0.03 1.1,0.03 0.25,0 0.74,-0.02 1.11,-0.03 l 0,0.31 c -0.67,0 -0.78,0 -0.78,0.45 z"
         id="path5680" /><path
         style="fill:#000000;stroke-width:0"
         inkscape:connector-curvature="0"
         d="m 244.74,659.53 0.01,0.21 c 0.06,1.49 0.9,1.74 1.24,1.74 1.02,0 1.12,-1.35 1.12,-1.74 l -2.36,0 -0.01,-0.21 2.78,0 c 0.22,0 0.25,0 0.25,0.21 0,0.99 -0.54,1.96 -1.78,1.96 -1.16,0 -2.07,-1.03 -2.07,-2.28 0,-1.33 1.04,-2.3 2.19,-2.3 1.21,0 1.66,1.11 1.66,1.3 0,0.1 -0.08,0.12 -0.13,0.12 -0.09,0 -0.11,-0.06 -0.13,-0.14 -0.35,-1.03 -1.24,-1.03 -1.34,-1.03 -0.5,0 -0.9,0.3 -1.13,0.67 -0.3,0.48 -0.3,1.13 -0.3,1.49 z"
         id="path5682" /><path
         style="fill:#000000;stroke-width:0"
         inkscape:connector-curvature="0"
         d="m 249.16,660.66 0,-2.67 c 0,-0.45 -0.11,-0.45 -0.78,-0.45 l 0,-0.31 c 0.35,0.01 0.86,0.03 1.13,0.03 0.26,0 0.77,-0.02 1.11,-0.03 l 0,0.31 c -0.66,0 -0.77,0 -0.77,0.45 l 0,1.83 c 0,1.04 0.7,1.6 1.34,1.6 0.63,0 0.74,-0.54 0.74,-1.11 l 0,-2.32 c 0,-0.45 -0.11,-0.45 -0.78,-0.45 l 0,-0.31 c 0.35,0.01 0.86,0.03 1.13,0.03 0.26,0 0.77,-0.02 1.11,-0.03 l 0,0.31 c -0.66,0 -0.77,0 -0.77,0.45 l 0,1.83 c 0,1.04 0.7,1.6 1.34,1.6 0.63,0 0.74,-0.54 0.74,-1.11 l 0,-2.32 c 0,-0.45 -0.11,-0.45 -0.78,-0.45 l 0,-0.31 c 0.35,0.01 0.86,0.03 1.13,0.03 0.25,0 0.77,-0.02 1.11,-0.03 l 0,0.31 c -0.52,0 -0.76,0 -0.78,0.3 l 0,1.9 c 0,0.86 0,1.17 -0.3,1.53 -0.14,0.17 -0.47,0.37 -1.05,0.37 -0.84,0 -1.27,-0.6 -1.44,-0.98 -0.14,0.87 -0.88,0.98 -1.33,0.98 -0.73,0 -1.19,-0.43 -1.47,-1.05 l 0,1.05 -1.41,-0.11 0,-0.31 c 0.7,0 0.78,-0.07 0.78,-0.56 z"
         id="path5684" /><path
         style="fill:#000000;stroke-width:0"
         inkscape:connector-curvature="0"
         d="m 257.47,659.53 0.01,0.21 c 0.06,1.49 0.9,1.74 1.24,1.74 1.02,0 1.12,-1.35 1.12,-1.74 l -2.36,0 -0.01,-0.21 2.78,0 c 0.22,0 0.25,0 0.25,0.21 0,0.99 -0.54,1.96 -1.78,1.96 -1.16,0 -2.08,-1.03 -2.08,-2.28 0,-1.33 1.05,-2.3 2.2,-2.3 1.21,0 1.66,1.11 1.66,1.3 0,0.1 -0.08,0.12 -0.13,0.12 -0.09,0 -0.11,-0.06 -0.13,-0.14 -0.35,-1.03 -1.25,-1.03 -1.34,-1.03 -0.5,0 -0.9,0.3 -1.13,0.67 -0.3,0.48 -0.3,1.13 -0.3,1.49 z"
         id="path5686" /><path
         style="fill:#000000;stroke-width:0"
         inkscape:connector-curvature="0"
         d="m 261.89,660.66 0,-2.67 c 0,-0.45 -0.11,-0.45 -0.78,-0.45 l 0,-0.31 c 0.35,0.01 0.86,0.03 1.12,0.03 0.26,0 0.78,-0.02 1.12,-0.03 l 0,0.31 c -0.67,0 -0.78,0 -0.78,0.45 l 0,1.83 c 0,1.04 0.71,1.6 1.35,1.6 0.63,0 0.73,-0.54 0.73,-1.11 l 0,-2.32 c 0,-0.45 -0.1,-0.45 -0.77,-0.45 l 0,-0.31 c 0.35,0.01 0.85,0.03 1.12,0.03 0.26,0 0.78,-0.02 1.12,-0.03 l 0,0.31 c -0.52,0 -0.77,0 -0.78,0.3 l 0,1.9 c 0,0.86 0,1.17 -0.31,1.53 -0.14,0.17 -0.46,0.37 -1.04,0.37 -0.73,0 -1.2,-0.43 -1.48,-1.05 l 0,1.05 -1.4,-0.11 0,-0.31 c 0.7,0 0.78,-0.07 0.78,-0.56 z"
         id="path5688" /><path
         style="fill:#000000;stroke-width:0"
         inkscape:connector-curvature="0"
         d="m 267.77,661.22 1.43,0 0,0.31 -1.43,0 0,1.83 -0.25,0 c -0.01,-0.82 -0.31,-1.88 -1.28,-1.92 l 0,-0.22 0.84,0 0,-2.75 c 0,-1.23 0.93,-1.35 1.29,-1.35 0.71,0 0.99,0.71 0.99,1.35 l 0,0.57 -0.25,0 0,-0.55 c 0,-0.74 -0.3,-1.12 -0.67,-1.12 -0.67,0 -0.67,0.91 -0.67,1.08 z"
         id="path5690" /><path
         style="fill:#000000;stroke-width:0"
         inkscape:connector-curvature="0"
         d="m 274.41,659.4 0,0.08 0.01,0.07 0,0.07 0,0.07 0.01,0.07 0,0.07 0.01,0.06 0.01,0.07 0.01,0.06 0.01,0.06 0.01,0.06 0.01,0.06 0.03,0.1 0.03,0.11 0.03,0.1 0.04,0.09 0.04,0.08 0.04,0.08 0.04,0.08 0.05,0.07 0.05,0.06 0.05,0.06 0.05,0.06 0.05,0.05 0.06,0.05 0.05,0.04 0.06,0.04 0.05,0.03 0.06,0.03 0.06,0.03 0.05,0.02 0.06,0.02 0.05,0.01 0.06,0.02 0.05,0.01 0.06,0 0.05,0.01 0.05,0 c 0.09,0 0.72,-0.01 1.06,-0.37 -0.4,-0.03 -0.46,-0.33 -0.46,-0.46 0,-0.26 0.18,-0.46 0.45,-0.46 0.26,0 0.46,0.17 0.46,0.47 0,0.68 -0.75,1.07 -1.52,1.07 -1.25,0 -2.16,-1.08 -2.16,-2.32 0,-1.27 0.98,-2.26 2.14,-2.26 1.33,0 1.65,1.2 1.65,1.3 0,0.1 -0.1,0.1 -0.13,0.1 -0.09,0 -0.11,-0.04 -0.13,-0.1 -0.29,-0.93 -0.93,-1.05 -1.3,-1.05 -0.53,0 -1.41,0.43 -1.41,2.03 z"
         id="path5692" /><path
         style="fill:#000000;stroke-width:0"
         inkscape:connector-curvature="0"
         d="m 281,657.99 0,-0.04 0.01,-0.03 0,-0.04 0.01,-0.04 0.01,-0.04 0.01,-0.03 0.02,-0.04 0.01,-0.04 0.01,-0.03 0.02,-0.04 0.02,-0.03 0.02,-0.03 0.02,-0.04 0.02,-0.03 0.02,-0.03 0.03,-0.03 0.02,-0.03 0.03,-0.02 0.02,-0.03 0.03,-0.02 0.03,-0.03 0.03,-0.02 0.04,-0.02 0.03,-0.02 0.04,-0.01 0.03,-0.02 0.04,-0.01 0.04,-0.01 0.04,-0.01 0.04,0 0.04,-0.01 0.04,0 c 0.21,0 0.82,0.14 0.82,0.95 l 0,0.56 -0.25,0 0,-0.56 c 0,-0.58 -0.25,-0.64 -0.36,-0.64 -0.33,0 -0.37,0.45 -0.37,0.5 l 0,1.99 c 0,0.42 0,0.81 -0.35,1.18 -0.39,0.39 -0.89,0.55 -1.37,0.55 -0.81,0 -1.5,-0.47 -1.5,-1.13 0,-0.3 0.2,-0.47 0.46,-0.47 0.27,0 0.45,0.2 0.45,0.46 0,0.12 -0.05,0.45 -0.5,0.46 0.27,0.35 0.75,0.46 1.07,0.46 0.49,0 1.06,-0.39 1.06,-1.28 l 0,-0.37 0,-0.21 0,-0.99 c 0,-0.95 -0.72,-1.29 -1.17,-1.29 -0.49,0 -0.89,0.35 -0.89,0.85 0,0.55 0.41,1.37 2.06,1.43 l 0,0 0,0.21 c -0.51,-0.03 -1.21,-0.06 -1.83,-0.36 -0.75,-0.33 -1,-0.85 -1,-1.29 0,-0.81 0.97,-1.06 1.59,-1.06 0.66,0 1.12,0.4 1.31,0.87 z"
         id="path5694" /><path
         style="fill:#000000;stroke-width:0"
         inkscape:connector-curvature="0"
         d="m 284.32,660.54 0,1.1 -1.38,-0.11 0,-0.31 c 0.7,0 0.78,-0.07 0.78,-0.56 l 0,-2.67 c 0,-0.45 -0.11,-0.45 -0.78,-0.45 l 0,-0.31 c 0.39,0.01 0.86,0.03 1.14,0.03 0.39,0 0.86,0 1.26,-0.03 l 0,0.31 -0.21,0 c -0.74,0 -0.76,0.11 -0.76,0.47 l 0,1.53 c 0,0.99 0.42,1.88 1.18,1.88 0.07,0 0.09,0 0.11,-0.01 -0.03,-0.01 -0.23,-0.13 -0.23,-0.39 0,-0.28 0.21,-0.43 0.43,-0.43 0.18,0 0.43,0.12 0.43,0.44 0,0.32 -0.31,0.61 -0.74,0.61 -0.73,0 -1.09,-0.67 -1.23,-1.1 z"
         id="path5696" /><path
         style="fill:#000000;stroke-width:0"
         inkscape:connector-curvature="0"
         d="m 288.27,660.99 0,3.16 -1.43,-0.11 0,-0.31 c 0.7,0 0.78,-0.07 0.78,-0.56 l 0,-5.94 0.24,0 c 0.02,0.01 0.09,0.15 0.36,0.62 0.15,-0.23 0.57,-0.73 1.31,-0.73 l -0.04,0.22 c -0.45,0 -0.81,0.24 -1.05,0.61 -0.14,0.21 -0.14,0.24 -0.14,0.42 l 0,0 0,2.05 c 0,0.19 0,0.2 0.11,0.36 0.39,0.56 0.94,0.64 1.18,0.64 0.45,0 0.81,-0.26 1.05,-0.64 0.25,-0.41 0.28,-0.98 0.28,-1.39 0,-0.36 -0.02,-0.96 -0.31,-1.41 -0.2,-0.31 -0.58,-0.64 -1.12,-0.64 l 0.04,-0.22 c 1.18,0 2.22,0.98 2.22,2.26 0,1.27 -0.98,2.26 -2.11,2.26 -0.78,0 -1.21,-0.47 -1.37,-0.65 z"
         id="path5698" /><path
         style="fill:#000000;stroke-width:0"
         inkscape:connector-curvature="0"
         d="m 297.06,659.36 -0.01,0.12 0,0.12 -0.02,0.12 -0.02,0.11 -0.02,0.11 -0.03,0.11 -0.04,0.11 -0.04,0.11 -0.04,0.1 -0.05,0.1 -0.05,0.1 -0.06,0.09 -0.06,0.09 -0.07,0.09 -0.07,0.09 -0.07,0.08 -0.08,0.08 -0.08,0.07 -0.08,0.07 -0.09,0.06 -0.09,0.07 -0.09,0.05 -0.09,0.05 -0.1,0.05 -0.1,0.04 -0.1,0.04 -0.11,0.03 -0.1,0.03 -0.11,0.02 -0.11,0.01 -0.11,0.01 -0.11,0.01 -0.01,-0.22 c 0.43,0 0.86,-0.22 1.12,-0.65 0.26,-0.43 0.26,-1.01 0.26,-1.39 0,-0.35 0,-0.89 -0.22,-1.33 -0.22,-0.45 -0.66,-0.74 -1.15,-0.74 l 0,0 c -0.43,0 -0.87,0.21 -1.14,0.67 -0.25,0.44 -0.25,1.05 -0.25,1.4 0,0.39 0,0.93 0.24,1.37 0.27,0.46 0.74,0.67 1.14,0.67 l 0.01,0.22 c -1.25,0 -2.22,-1.09 -2.22,-2.34 0,-1.28 1.04,-2.24 2.21,-2.24 1.2,0 2.21,0.98 2.21,2.24 z"
         id="path5700" /><path
         style="fill:#000000;stroke-width:0"
         inkscape:connector-curvature="0"
         d="m 298.44,660.66 0,-2.67 c 0,-0.45 -0.11,-0.45 -0.78,-0.45 l 0,-0.31 c 0.35,0.01 0.86,0.03 1.13,0.03 0.26,0 0.78,-0.02 1.11,-0.03 l 0,0.31 c -0.66,0 -0.77,0 -0.77,0.45 l 0,1.83 c 0,1.04 0.71,1.6 1.34,1.6 0.63,0 0.74,-0.54 0.74,-1.11 l 0,-2.32 c 0,-0.45 -0.11,-0.45 -0.78,-0.45 l 0,-0.31 c 0.35,0.01 0.86,0.03 1.13,0.03 0.26,0 0.78,-0.02 1.11,-0.03 l 0,0.31 c -0.51,0 -0.76,0 -0.77,0.3 l 0,1.9 c 0,0.86 0,1.17 -0.31,1.53 -0.14,0.17 -0.47,0.37 -1.05,0.37 -0.72,0 -1.19,-0.43 -1.47,-1.05 l 0,1.05 -1.41,-0.11 0,-0.31 c 0.7,0 0.78,-0.07 0.78,-0.56 z"
         id="path5702" /><path
         style="fill:#000000;stroke-width:0"
         inkscape:connector-curvature="0"
         d="m 224.53,648.71 0,-2.68 c 0,-0.44 -0.11,-0.44 -0.78,-0.44 l 0,-0.31 c 0.35,0.01 0.86,0.03 1.13,0.03 0.26,0 0.77,-0.02 1.11,-0.03 l 0,0.31 c -0.67,0 -0.77,0 -0.77,0.44 l 0,1.84 c 0,1.03 0.7,1.59 1.34,1.59 0.63,0 0.74,-0.54 0.74,-1.1 l 0,-2.33 c 0,-0.44 -0.11,-0.44 -0.78,-0.44 l 0,-0.31 c 0.35,0.01 0.86,0.03 1.13,0.03 0.26,0 0.77,-0.02 1.11,-0.03 l 0,0.31 c -0.66,0 -0.77,0 -0.77,0.44 l 0,1.84 c 0,1.03 0.7,1.59 1.34,1.59 0.63,0 0.74,-0.54 0.74,-1.1 l 0,-2.33 c 0,-0.44 -0.11,-0.44 -0.78,-0.44 l 0,-0.31 c 0.35,0.01 0.86,0.03 1.13,0.03 0.26,0 0.77,-0.02 1.11,-0.03 l 0,0.31 c -0.52,0 -0.77,0 -0.77,0.3 l 0,1.9 c 0,0.86 0,1.16 -0.31,1.52 -0.14,0.17 -0.47,0.37 -1.05,0.37 -0.84,0 -1.28,-0.6 -1.44,-0.97 -0.14,0.86 -0.88,0.97 -1.33,0.97 -0.73,0 -1.2,-0.43 -1.47,-1.04 l 0,1.04 -1.41,-0.11 0,-0.31 c 0.7,0 0.78,-0.07 0.78,-0.55 z"
         id="path5704" /><path
         style="fill:#000000;stroke-width:0"
         inkscape:connector-curvature="0"
         d="m 236.43,647.41 -0.01,0.12 0,0.12 -0.02,0.11 -0.02,0.12 -0.02,0.11 -0.03,0.11 -0.04,0.11 -0.04,0.1 -0.04,0.11 -0.05,0.1 -0.05,0.09 -0.06,0.1 -0.06,0.09 -0.07,0.09 -0.07,0.08 -0.07,0.08 -0.08,0.08 -0.08,0.07 -0.08,0.07 -0.09,0.07 -0.09,0.06 -0.09,0.06 -0.09,0.05 -0.1,0.05 -0.1,0.04 -0.1,0.04 -0.11,0.03 -0.1,0.02 -0.11,0.02 -0.11,0.02 -0.11,0.01 -0.11,0 -0.01,-0.22 c 0.43,0 0.86,-0.22 1.12,-0.65 0.26,-0.42 0.26,-1 0.26,-1.38 0,-0.36 0,-0.9 -0.22,-1.34 -0.22,-0.44 -0.66,-0.73 -1.15,-0.73 l 0,0 c -0.43,0 -0.87,0.21 -1.14,0.67 -0.25,0.43 -0.25,1.04 -0.25,1.4 0,0.39 0,0.93 0.24,1.36 0.27,0.46 0.74,0.67 1.14,0.67 l 0.01,0.22 c -1.25,0 -2.22,-1.08 -2.22,-2.33 0,-1.29 1.04,-2.24 2.21,-2.24 1.2,0 2.21,0.97 2.21,2.24 z"
         id="path5706" /><path
         style="fill:#000000;stroke-width:0"
         inkscape:connector-curvature="0"
         d="m 240.78,645.83 0,-0.66 1.46,0.11 0,0.31 c -0.7,0 -0.77,0.07 -0.77,0.55 l 0,6.05 -1.44,-0.11 0,-0.31 c 0.7,0 0.78,-0.07 0.78,-0.55 l 0,-2.16 c -0.29,0.36 -0.72,0.62 -1.26,0.62 l 0.04,-0.22 c 0.35,0 0.77,-0.15 1.08,-0.6 0.11,-0.16 0.11,-0.19 0.11,-0.37 l 0,0 0,-2.04 c 0,-0.18 0,-0.2 -0.11,-0.36 -0.3,-0.48 -0.75,-0.7 -1.18,-0.7 -0.45,0 -0.8,0.26 -1.04,0.64 -0.26,0.4 -0.29,0.97 -0.29,1.38 0,0.37 0.02,0.97 0.31,1.41 0.21,0.31 0.58,0.64 1.12,0.64 l -0.04,0.22 c -1.17,0 -2.22,-0.97 -2.22,-2.26 0,-1.27 0.98,-2.25 2.11,-2.25 0.64,0 1.09,0.34 1.34,0.66 z"
         id="path5708" /><path
         style="fill:#000000;stroke-width:0"
         inkscape:connector-curvature="0"
         d="m 243.63,647.58 0.01,0.21 c 0.06,1.48 0.9,1.73 1.24,1.73 1.02,0 1.12,-1.34 1.12,-1.73 l -2.36,0 -0.01,-0.21 2.78,0 c 0.22,0 0.25,0 0.25,0.21 0,0.98 -0.54,1.95 -1.78,1.95 -1.16,0 -2.07,-1.02 -2.07,-2.27 0,-1.34 1.04,-2.3 2.19,-2.3 1.21,0 1.66,1.1 1.66,1.29 0,0.1 -0.08,0.12 -0.13,0.12 -0.09,0 -0.11,-0.06 -0.13,-0.14 -0.35,-1.02 -1.24,-1.02 -1.34,-1.02 -0.5,0 -0.9,0.3 -1.13,0.67 -0.3,0.47 -0.3,1.13 -0.3,1.49 z"
         id="path5710" /><path
         style="fill:#000000;stroke-width:0"
         inkscape:connector-curvature="0"
         d="m 248.72,652.19 -1.43,-0.11 0,-0.31 c 0.7,0 0.78,-0.07 0.78,-0.55 l 0,-5.19 c 0,-0.44 -0.11,-0.44 -0.78,-0.44 l 0,-0.31 c 0.33,0.01 0.86,0.03 1.11,0.03 0.24,0 0.73,-0.02 1.1,-0.03 l 0,0.31 c -0.67,0 -0.78,0 -0.78,0.44 z"
         id="path5712" /><path
         style="fill:#000000;stroke-width:0"
         inkscape:connector-curvature="0"
         d="m 251.8,647.21 0.02,0 0.03,-0.01 0.03,0 0.03,-0.01 0.03,-0.01 0.04,-0.01 0.03,-0.01 0.04,-0.01 0.05,-0.01 0.04,-0.02 0.04,-0.01 0.04,-0.02 0.05,-0.02 0.04,-0.02 0.05,-0.02 0.04,-0.02 0.04,-0.03 0.05,-0.03 0.04,-0.03 0.04,-0.03 0.03,-0.04 0.04,-0.03 0.03,-0.04 0.03,-0.05 0.03,-0.04 0.02,-0.02 0.01,-0.03 0.01,-0.02 0.01,-0.03 0.01,-0.03 0.01,-0.02 0.01,-0.03 0.01,-0.03 0,-0.03 0.01,-0.03 0,-0.03 0,-0.03 0.01,-0.03 0,-0.04 c 0,-0.5 -0.35,-0.9 -1.13,-0.9 -0.84,0 -1.2,0.57 -1.39,1.41 -0.03,0.13 -0.03,0.17 -0.13,0.17 -0.13,0 -0.13,-0.07 -0.13,-0.25 l 0,-1.31 c 0,-0.17 0,-0.24 0.11,-0.24 0.05,0 0.06,0.01 0.24,0.2 0.02,0.02 0.02,0.04 0.2,0.23 0.44,-0.42 0.89,-0.43 1.1,-0.43 1.15,0 1.6,0.67 1.6,1.38 0,0.53 -0.3,0.83 -0.41,0.95 -0.33,0.32 -0.72,0.4 -1.14,0.48 -0.56,0.11 -1.23,0.24 -1.23,0.81 0,0.35 0.26,0.76 1.12,0.76 1.1,0 1.15,-0.89 1.17,-1.2 0.01,-0.09 0.1,-0.09 0.11,-0.09 0.14,0 0.14,0.05 0.14,0.23 l 0,1.01 c 0,0.17 0,0.24 -0.11,0.24 -0.05,0 -0.07,0 -0.2,-0.12 -0.03,-0.04 -0.13,-0.13 -0.17,-0.16 -0.38,0.28 -0.79,0.28 -0.94,0.28 -1.22,0 -1.59,-0.67 -1.59,-1.22 0,-0.35 0.16,-0.63 0.43,-0.85 0.31,-0.26 0.59,-0.32 1.31,-0.46 z"
         id="path5714" /><path
         style="fill:#000000;stroke-width:0"
         inkscape:connector-curvature="0"
         d="m 260.94,652.21 -0.01,0.01 0,0.01 -0.01,0.02 0,0.01 0,0.01 -0.01,0.01 0,0.01 -0.01,0.01 0,0.01 -0.01,0 0,0.01 0,0.01 -0.01,0.01 0,0.01 -0.01,0 -0.01,0.01 0,0.01 -0.01,0 0,0.01 -0.01,0 -0.01,0.01 -0.01,0 -0.01,0 -0.01,0.01 -0.01,0 -0.01,0 -0.01,0.01 -0.01,0 -0.01,0 -0.01,0 -0.02,0 0,0 -0.01,0 c -0.16,0 -0.19,-0.06 -0.24,-0.2 l -2.06,-5.96 c -0.18,-0.5 -0.58,-0.65 -1.12,-0.66 l 0,-0.31 c 0.23,0.01 0.66,0.03 1.02,0.03 0.31,0 0.82,-0.02 1.14,-0.03 l 0,0.31 c -0.5,0 -0.74,0.25 -0.74,0.5 0,0.03 0.01,0.13 0.02,0.15 l 0.45,1.31 2.46,0 -0.1,0.31 -2.25,0 1.12,3.24 1.13,-3.24 0.1,-0.31 0.53,-1.52 c 0.01,-0.05 0.03,-0.11 0.03,-0.14 0,-0.3 -0.56,-0.3 -0.82,-0.3 l 0,-0.31 c 0.35,0.03 1.05,0.03 1.43,0.03 0.43,0 0.89,-0.01 1.31,-0.03 l 0,0.31 -0.18,0 c -0.6,0 -0.74,0.07 -0.85,0.39 z"
         id="path5716" /><polygon
         style="fill:#000000;stroke-width:0"
         points="267.19,647.72 264.55,647.72 264.55,647.14 267.19,647.14 "
         id="polygon5718" /><path
         style="fill:#000000;stroke-width:0"
         inkscape:connector-curvature="0"
         d="m 268.32,648.68 0.01,-0.19 0.01,-0.19 0.02,-0.18 0.04,-0.18 0.04,-0.18 0.04,-0.18 0.06,-0.17 0.06,-0.16 0.08,-0.16 0.07,-0.16 0.09,-0.15 0.09,-0.15 0.1,-0.14 0.1,-0.14 0.12,-0.13 0.11,-0.12 0.12,-0.12 0.13,-0.11 0.13,-0.11 0.14,-0.1 0.14,-0.09 0.14,-0.09 0.15,-0.07 0.16,-0.08 0.15,-0.06 0.16,-0.05 0.16,-0.05 0.17,-0.04 0.17,-0.03 0.17,-0.02 0.17,-0.02 0.17,0 c 1.62,0 2.6,1.38 2.6,2.54 0,0.1 0,0.17 -0.13,0.17 -0.11,0 -0.11,-0.06 -0.12,-0.16 -0.08,-1.43 -1.15,-2.24 -2.23,-2.24 -0.61,0 -2.56,0.34 -2.56,3.3 0,2.98 1.94,3.32 2.55,3.32 1.08,0 1.97,-0.9 2.17,-2.36 0.02,-0.14 0.02,-0.17 0.16,-0.17 0.16,0 0.16,0.03 0.16,0.24 l 0,2.36 c 0,0.17 0,0.24 -0.11,0.24 -0.04,0 -0.08,0 -0.16,-0.12 l -0.5,-0.74 c -0.37,0.36 -0.87,0.86 -1.83,0.86 -1.86,0 -3.47,-1.58 -3.47,-3.62 z"
         id="path5720" /><path
         style="fill:#000000;stroke-width:0"
         inkscape:connector-curvature="0"
         d="m 275.52,648.68 0,-0.19 0.01,-0.19 0.03,-0.18 0.03,-0.18 0.04,-0.18 0.05,-0.18 0.05,-0.17 0.07,-0.16 0.07,-0.16 0.08,-0.16 0.08,-0.15 0.09,-0.15 0.1,-0.14 0.11,-0.14 0.11,-0.13 0.11,-0.12 0.13,-0.12 0.12,-0.11 0.13,-0.11 0.14,-0.1 0.14,-0.09 0.15,-0.09 0.15,-0.07 0.15,-0.08 0.15,-0.06 0.16,-0.05 0.17,-0.05 0.16,-0.04 0.17,-0.03 0.17,-0.02 0.17,-0.02 0.17,0 c 1.63,0 2.6,1.38 2.6,2.54 0,0.1 0,0.17 -0.13,0.17 -0.11,0 -0.11,-0.06 -0.12,-0.16 -0.08,-1.43 -1.14,-2.24 -2.23,-2.24 -0.61,0 -2.56,0.34 -2.56,3.3 0,2.98 1.94,3.32 2.55,3.32 1.09,0 1.98,-0.9 2.17,-2.36 0.02,-0.14 0.02,-0.17 0.16,-0.17 0.16,0 0.16,0.03 0.16,0.24 l 0,2.36 c 0,0.17 0,0.24 -0.11,0.24 -0.04,0 -0.08,0 -0.16,-0.12 l -0.49,-0.74 c -0.37,0.36 -0.88,0.86 -1.84,0.86 -1.86,0 -3.46,-1.58 -3.46,-3.62 z"
         id="path5722" /><path
         style="fill:#000000;stroke-width:0"
         inkscape:connector-curvature="0"
         d="m 284.17,645.29 0,0.06 0,0.05 0,0.06 -0.01,0.06 -0.01,0.05 0,0.05 -0.01,0.05 -0.01,0.05 -0.01,0.05 -0.02,0.04 -0.01,0.05 -0.01,0.04 -0.02,0.04 -0.02,0.04 -0.02,0.03 -0.02,0.04 -0.02,0.03 -0.02,0.03 -0.02,0.03 -0.03,0.03 -0.02,0.03 -0.03,0.02 -0.03,0.02 -0.03,0.02 -0.03,0.02 -0.03,0.01 -0.03,0.01 -0.03,0.02 -0.04,0 -0.03,0.01 -0.04,0 -0.03,0 c -0.35,0 -0.53,-0.26 -0.53,-0.52 0,-0.26 0.17,-0.53 0.53,-0.53 0.15,0 0.27,0.06 0.37,0.14 l 0.02,0.02 c 0.01,0 0.02,-0.01 0.02,-0.15 0,-0.64 -0.28,-1.25 -0.71,-1.72 -0.06,-0.06 -0.07,-0.07 -0.07,-0.11 0,-0.06 0.05,-0.11 0.1,-0.11 0.12,0 0.9,0.79 0.9,1.94 z"
         id="path5724" /><path
         style="fill:#000000;stroke-width:0"
         inkscape:connector-curvature="0"
         d="m 290.65,651.86 -0.01,0.01 0,0.01 0,0.01 -0.01,0.01 -0.01,0.02 0,0.02 -0.01,0.01 -0.01,0.01 0,0.02 -0.01,0.01 -0.01,0.01 -0.01,0.01 0,0.01 -0.01,0.01 -0.01,0.01 -0.01,0 0,0.01 -0.01,0 -0.01,0.01 -0.01,0 -0.01,0.01 -0.01,0 -0.01,0 -0.02,0.01 -0.01,0 -0.01,0 -0.02,0 -0.01,0 -0.02,0 -0.01,0 -0.02,0 -0.02,0 -0.02,0 -0.02,0 -1.68,0 0,-0.31 0.24,0 c 0.76,0 0.78,-0.11 0.78,-0.47 l 0,-4.98 c 0,-0.27 0,-0.73 -1.02,-0.73 l 0,-0.31 c 0.34,0.01 0.83,0.03 1.16,0.03 0.33,0 0.82,-0.02 1.17,-0.03 l 0,0.31 c -1.03,0 -1.03,0.46 -1.03,0.73 l 0,5.37 0.01,0 2.4,-6.19 c 0.05,-0.13 0.1,-0.22 0.2,-0.22 0.11,0 0.14,0.08 0.18,0.19 l 2.45,6.3 0.01,0 0,-5.72 c 0,-0.35 -0.02,-0.46 -0.79,-0.46 l -0.24,0 0,-0.31 c 0.37,0.03 1.05,0.03 1.44,0.03 0.39,0 1.06,0 1.43,-0.03 l 0,0.31 -0.24,0 c -0.77,0 -0.79,0.11 -0.79,0.46 l 0,5.25 c 0,0.36 0.02,0.47 0.79,0.47 l 0.24,0 0,0.31 -1.69,0 c -0.26,0 -0.26,-0.01 -0.33,-0.19 l -2.18,-5.61 z"
         id="path5726" /><polygon
         style="fill:#000000;stroke-width:0"
         points="300.13,647.72 297.49,647.72 297.49,647.14 300.13,647.14 "
         id="polygon5728" /><path
         style="fill:#000000;stroke-width:0"
         inkscape:connector-curvature="0"
         d="m 301.26,648.68 0.01,-0.19 0.01,-0.19 0.02,-0.18 0.04,-0.18 0.04,-0.18 0.04,-0.18 0.06,-0.17 0.06,-0.16 0.08,-0.16 0.07,-0.16 0.09,-0.15 0.09,-0.15 0.1,-0.14 0.1,-0.14 0.12,-0.13 0.11,-0.12 0.12,-0.12 0.13,-0.11 0.13,-0.11 0.14,-0.1 0.14,-0.09 0.14,-0.09 0.15,-0.07 0.16,-0.08 0.15,-0.06 0.16,-0.05 0.16,-0.05 0.17,-0.04 0.17,-0.03 0.17,-0.02 0.17,-0.02 0.17,0 c 1.62,0 2.6,1.38 2.6,2.54 0,0.1 0,0.17 -0.13,0.17 -0.11,0 -0.11,-0.06 -0.12,-0.16 -0.08,-1.43 -1.15,-2.24 -2.23,-2.24 -0.61,0 -2.56,0.34 -2.56,3.3 0,2.98 1.94,3.32 2.55,3.32 1.08,0 1.97,-0.9 2.17,-2.36 0.02,-0.14 0.02,-0.17 0.16,-0.17 0.16,0 0.16,0.03 0.16,0.24 l 0,2.36 c 0,0.17 0,0.24 -0.11,0.24 -0.04,0 -0.08,0 -0.16,-0.12 l -0.5,-0.74 c -0.37,0.36 -0.87,0.86 -1.83,0.86 -1.86,0 -3.47,-1.58 -3.47,-3.62 z"
         id="path5730" /><path
         style="fill:#000000;stroke-width:0"
         inkscape:connector-curvature="0"
         d="m 308.45,648.68 0.01,-0.19 0.01,-0.19 0.03,-0.18 0.03,-0.18 0.04,-0.18 0.05,-0.18 0.05,-0.17 0.07,-0.16 0.07,-0.16 0.08,-0.16 0.08,-0.15 0.09,-0.15 0.1,-0.14 0.11,-0.14 0.11,-0.13 0.11,-0.12 0.13,-0.12 0.12,-0.11 0.13,-0.11 0.14,-0.1 0.14,-0.09 0.15,-0.09 0.15,-0.07 0.15,-0.08 0.15,-0.06 0.16,-0.05 0.17,-0.05 0.16,-0.04 0.17,-0.03 0.17,-0.02 0.17,-0.02 0.17,0 c 1.63,0 2.6,1.38 2.6,2.54 0,0.1 0,0.17 -0.13,0.17 -0.11,0 -0.11,-0.06 -0.12,-0.16 -0.08,-1.43 -1.14,-2.24 -2.23,-2.24 -0.61,0 -2.56,0.34 -2.56,3.3 0,2.98 1.94,3.32 2.55,3.32 1.09,0 1.98,-0.9 2.17,-2.36 0.02,-0.14 0.02,-0.17 0.16,-0.17 0.16,0 0.16,0.03 0.16,0.24 l 0,2.36 c 0,0.17 0,0.24 -0.11,0.24 -0.04,0 -0.08,0 -0.16,-0.12 l -0.49,-0.74 c -0.37,0.36 -0.88,0.86 -1.84,0.86 -1.86,0 -3.47,-1.58 -3.47,-3.62 z"
         id="path5732" /></g>    <g
       ns0:preamble=""
       ns0:text="Implementation of \\\\\ndata structures\n"
       word-spacing="normal"
       letter-spacing="normal"
       font-size-adjust="none"
       font-stretch="normal"
       font-weight="normal"
       font-variant="normal"
       font-style="normal"
       stroke-miterlimit="10.433"
       xml:space="preserve"
       transform="matrix(1.96307,0,0,-2.6973356,-295.02196,2158.9136)"
       id="g5408"
       style="font-style:normal;font-variant:normal;font-weight:normal;font-stretch:normal;letter-spacing:normal;word-spacing:normal;text-anchor:start;fill:none;fill-opacity:1;fill-rule:evenodd;stroke:#000000;stroke-linecap:butt;stroke-linejoin:miter;stroke-miterlimit:10.43299961;stroke-dasharray:none;stroke-dashoffset:0;stroke-opacity:1"><path
         id="path5410"
         d="m 225.67,663.26 0,0.03 0,0.03 0.01,0.03 0,0.03 0,0.03 0,0.03 0.01,0.02 0,0.02 0.01,0.03 0,0.02 0.01,0.02 0.01,0.02 0.02,0.01 0.01,0.02 0.02,0.01 0.02,0.02 0.02,0.01 0.02,0.01 0.01,0.01 0.02,0 0.01,0.01 0.02,0 0.01,0.01 0.02,0 0.02,0.01 0.01,0 0.02,0.01 0.02,0 0.02,0 0.02,0.01 0.02,0 0.03,0 0.02,0 0.02,0.01 0.03,0 0.02,0 0.03,0 0.03,0 0.03,0 0.03,0.01 0.03,0 0.03,0 0.04,0 0.03,0 0.03,0 0.04,0 0.26,0 0,0.31 c -0.35,-0.03 -1.14,-0.03 -1.51,-0.03 -0.39,0 -1.18,0 -1.53,0.03 l 0,-0.31 0.26,0 c 0.79,0 0.82,-0.11 0.82,-0.47 l 0,-5.25 c 0,-0.36 -0.03,-0.47 -0.82,-0.47 l -0.26,0 0,-0.31 c 0.35,0.03 1.14,0.03 1.52,0.03 0.38,0 1.17,0 1.52,-0.03 l 0,0.31 -0.26,0 c -0.79,0 -0.82,0.11 -0.82,0.47 z"
         inkscape:connector-curvature="0"
         style="fill:#000000;stroke-width:0" /><path
         id="path5412"
         d="m 228.13,660.66 0,-2.67 c 0,-0.45 -0.11,-0.45 -0.78,-0.45 l 0,-0.31 c 0.35,0.01 0.86,0.03 1.13,0.03 0.26,0 0.77,-0.02 1.11,-0.03 l 0,0.31 c -0.66,0 -0.77,0 -0.77,0.45 l 0,1.83 c 0,1.04 0.7,1.6 1.34,1.6 0.63,0 0.74,-0.54 0.74,-1.11 l 0,-2.32 c 0,-0.45 -0.11,-0.45 -0.78,-0.45 l 0,-0.31 c 0.35,0.01 0.86,0.03 1.13,0.03 0.26,0 0.77,-0.02 1.11,-0.03 l 0,0.31 c -0.66,0 -0.77,0 -0.77,0.45 l 0,1.83 c 0,1.04 0.7,1.6 1.34,1.6 0.63,0 0.74,-0.54 0.74,-1.11 l 0,-2.32 c 0,-0.45 -0.11,-0.45 -0.78,-0.45 l 0,-0.31 c 0.35,0.01 0.86,0.03 1.13,0.03 0.25,0 0.77,-0.02 1.11,-0.03 l 0,0.31 c -0.52,0 -0.76,0 -0.78,0.3 l 0,1.9 c 0,0.86 0,1.17 -0.3,1.53 -0.14,0.17 -0.47,0.37 -1.05,0.37 -0.84,0 -1.27,-0.6 -1.44,-0.98 -0.14,0.87 -0.88,0.98 -1.33,0.98 -0.73,0 -1.19,-0.43 -1.47,-1.05 l 0,1.05 -1.41,-0.11 0,-0.31 c 0.7,0 0.78,-0.07 0.78,-0.56 z"
         inkscape:connector-curvature="0"
         style="fill:#000000;stroke-width:0" /><path
         id="path5414"
         d="m 237.05,660.98 0,0.66 -1.44,-0.11 0,-0.31 c 0.71,0 0.78,-0.06 0.78,-0.5 l 0,-4.66 c 0,-0.45 -0.11,-0.45 -0.78,-0.45 l 0,-0.31 c 0.34,0.01 0.86,0.03 1.12,0.03 0.27,0 0.78,-0.02 1.13,-0.03 l 0,0.31 c -0.67,0 -0.78,0 -0.78,0.45 l 0,1.67 0,0.09 0.14,0.13 c -0.14,0.21 -0.14,0.22 -0.14,0.42 l 0,0 0,2.22 c 0.29,0.51 0.78,0.8 1.28,0.8 0.73,0 1.34,-0.88 1.34,-2.01 0,-1.2 -0.7,-2.04 -1.44,-2.04 -0.39,0 -0.77,0.2 -1.04,0.61 l -0.14,-0.13 c 0.05,-0.16 0.47,-0.7 1.22,-0.7 1.19,0 2.23,0.98 2.23,2.26 0,1.27 -0.97,2.26 -2.09,2.26 -0.77,0 -1.19,-0.44 -1.39,-0.66 z"
         inkscape:connector-curvature="0"
         style="fill:#000000;stroke-width:0" /><path
         id="path5416"
         d="m 242.63,664.15 -1.43,-0.11 0,-0.31 c 0.7,0 0.78,-0.07 0.78,-0.56 l 0,-5.18 c 0,-0.45 -0.11,-0.45 -0.78,-0.45 l 0,-0.31 c 0.33,0.01 0.86,0.03 1.1,0.03 0.25,0 0.74,-0.02 1.11,-0.03 l 0,0.31 c -0.67,0 -0.78,0 -0.78,0.45 z"
         inkscape:connector-curvature="0"
         style="fill:#000000;stroke-width:0" /><path
         id="path5418"
         d="m 244.74,659.53 0.01,0.21 c 0.06,1.49 0.9,1.74 1.24,1.74 1.02,0 1.12,-1.35 1.12,-1.74 l -2.36,0 -0.01,-0.21 2.78,0 c 0.22,0 0.25,0 0.25,0.21 0,0.99 -0.54,1.96 -1.78,1.96 -1.16,0 -2.07,-1.03 -2.07,-2.28 0,-1.33 1.04,-2.3 2.19,-2.3 1.21,0 1.66,1.11 1.66,1.3 0,0.1 -0.08,0.12 -0.13,0.12 -0.09,0 -0.11,-0.06 -0.13,-0.14 -0.35,-1.03 -1.24,-1.03 -1.34,-1.03 -0.5,0 -0.9,0.3 -1.13,0.67 -0.3,0.48 -0.3,1.13 -0.3,1.49 z"
         inkscape:connector-curvature="0"
         style="fill:#000000;stroke-width:0" /><path
         id="path5420"
         d="m 249.16,660.66 0,-2.67 c 0,-0.45 -0.11,-0.45 -0.78,-0.45 l 0,-0.31 c 0.35,0.01 0.86,0.03 1.13,0.03 0.26,0 0.77,-0.02 1.11,-0.03 l 0,0.31 c -0.66,0 -0.77,0 -0.77,0.45 l 0,1.83 c 0,1.04 0.7,1.6 1.34,1.6 0.63,0 0.74,-0.54 0.74,-1.11 l 0,-2.32 c 0,-0.45 -0.11,-0.45 -0.78,-0.45 l 0,-0.31 c 0.35,0.01 0.86,0.03 1.13,0.03 0.26,0 0.77,-0.02 1.11,-0.03 l 0,0.31 c -0.66,0 -0.77,0 -0.77,0.45 l 0,1.83 c 0,1.04 0.7,1.6 1.34,1.6 0.63,0 0.74,-0.54 0.74,-1.11 l 0,-2.32 c 0,-0.45 -0.11,-0.45 -0.78,-0.45 l 0,-0.31 c 0.35,0.01 0.86,0.03 1.13,0.03 0.25,0 0.77,-0.02 1.11,-0.03 l 0,0.31 c -0.52,0 -0.76,0 -0.78,0.3 l 0,1.9 c 0,0.86 0,1.17 -0.3,1.53 -0.14,0.17 -0.47,0.37 -1.05,0.37 -0.84,0 -1.27,-0.6 -1.44,-0.98 -0.14,0.87 -0.88,0.98 -1.33,0.98 -0.73,0 -1.19,-0.43 -1.47,-1.05 l 0,1.05 -1.41,-0.11 0,-0.31 c 0.7,0 0.78,-0.07 0.78,-0.56 z"
         inkscape:connector-curvature="0"
         style="fill:#000000;stroke-width:0" /><path
         id="path5422"
         d="m 257.47,659.53 0.01,0.21 c 0.06,1.49 0.9,1.74 1.24,1.74 1.02,0 1.12,-1.35 1.12,-1.74 l -2.36,0 -0.01,-0.21 2.78,0 c 0.22,0 0.25,0 0.25,0.21 0,0.99 -0.54,1.96 -1.78,1.96 -1.16,0 -2.08,-1.03 -2.08,-2.28 0,-1.33 1.05,-2.3 2.2,-2.3 1.21,0 1.66,1.11 1.66,1.3 0,0.1 -0.08,0.12 -0.13,0.12 -0.09,0 -0.11,-0.06 -0.13,-0.14 -0.35,-1.03 -1.25,-1.03 -1.34,-1.03 -0.5,0 -0.9,0.3 -1.13,0.67 -0.3,0.48 -0.3,1.13 -0.3,1.49 z"
         inkscape:connector-curvature="0"
         style="fill:#000000;stroke-width:0" /><path
         id="path5424"
         d="m 261.89,660.66 0,-2.67 c 0,-0.45 -0.11,-0.45 -0.78,-0.45 l 0,-0.31 c 0.35,0.01 0.86,0.03 1.12,0.03 0.26,0 0.78,-0.02 1.12,-0.03 l 0,0.31 c -0.67,0 -0.78,0 -0.78,0.45 l 0,1.83 c 0,1.04 0.71,1.6 1.35,1.6 0.63,0 0.73,-0.54 0.73,-1.11 l 0,-2.32 c 0,-0.45 -0.1,-0.45 -0.77,-0.45 l 0,-0.31 c 0.35,0.01 0.85,0.03 1.12,0.03 0.26,0 0.78,-0.02 1.12,-0.03 l 0,0.31 c -0.52,0 -0.77,0 -0.78,0.3 l 0,1.9 c 0,0.86 0,1.17 -0.31,1.53 -0.14,0.17 -0.46,0.37 -1.04,0.37 -0.73,0 -1.2,-0.43 -1.48,-1.05 l 0,1.05 -1.4,-0.11 0,-0.31 c 0.7,0 0.78,-0.07 0.78,-0.56 z"
         inkscape:connector-curvature="0"
         style="fill:#000000;stroke-width:0" /><path
         id="path5426"
         d="m 267.77,661.22 1.43,0 0,0.31 -1.43,0 0,1.83 -0.25,0 c -0.01,-0.82 -0.31,-1.88 -1.28,-1.92 l 0,-0.22 0.84,0 0,-2.75 c 0,-1.23 0.93,-1.35 1.29,-1.35 0.71,0 0.99,0.71 0.99,1.35 l 0,0.57 -0.25,0 0,-0.55 c 0,-0.74 -0.3,-1.12 -0.67,-1.12 -0.67,0 -0.67,0.91 -0.67,1.08 z"
         inkscape:connector-curvature="0"
         style="fill:#000000;stroke-width:0" /><path
         id="path5428"
         d="m 273.24,657.99 0.01,-0.04 0,-0.03 0.01,-0.04 0.01,-0.04 0.01,-0.04 0.01,-0.03 0.01,-0.04 0.01,-0.04 0.02,-0.03 0.02,-0.04 0.01,-0.03 0.02,-0.03 0.02,-0.04 0.02,-0.03 0.03,-0.03 0.02,-0.03 0.03,-0.03 0.02,-0.02 0.03,-0.03 0.03,-0.02 0.03,-0.03 0.03,-0.02 0.03,-0.02 0.04,-0.02 0.03,-0.01 0.04,-0.02 0.03,-0.01 0.04,-0.01 0.04,-0.01 0.04,0 0.05,-0.01 0.04,0 c 0.21,0 0.82,0.14 0.82,0.95 l 0,0.56 -0.25,0 0,-0.56 c 0,-0.58 -0.25,-0.64 -0.36,-0.64 -0.33,0 -0.37,0.45 -0.37,0.5 l 0,1.99 c 0,0.42 0,0.81 -0.36,1.18 -0.39,0.39 -0.89,0.55 -1.36,0.55 -0.82,0 -1.51,-0.47 -1.51,-1.13 0,-0.3 0.2,-0.47 0.46,-0.47 0.28,0 0.46,0.2 0.46,0.46 0,0.12 -0.05,0.45 -0.51,0.46 0.27,0.35 0.76,0.46 1.08,0.46 0.49,0 1.05,-0.39 1.05,-1.28 l 0,-0.37 0,-0.21 0,-0.99 c 0,-0.95 -0.71,-1.29 -1.16,-1.29 -0.49,0 -0.9,0.35 -0.9,0.85 0,0.55 0.42,1.37 2.06,1.43 l 0,0 0,0.21 c -0.5,-0.03 -1.2,-0.06 -1.83,-0.36 -0.75,-0.33 -1,-0.85 -1,-1.29 0,-0.81 0.97,-1.06 1.6,-1.06 0.66,0 1.11,0.4 1.3,0.87 z"
         inkscape:connector-curvature="0"
         style="fill:#000000;stroke-width:0" /><path
         id="path5430"
         d="m 276.63,661.22 1.42,0 0,0.31 -1.42,0 0,1.83 -0.25,0 c -0.01,-0.82 -0.31,-1.88 -1.29,-1.92 l 0,-0.22 0.85,0 0,-2.75 c 0,-1.23 0.93,-1.35 1.29,-1.35 0.7,0 0.98,0.71 0.98,1.35 l 0,0.57 -0.25,0 0,-0.55 c 0,-0.74 -0.29,-1.12 -0.66,-1.12 -0.67,0 -0.67,0.91 -0.67,1.08 z"
         inkscape:connector-curvature="0"
         style="fill:#000000;stroke-width:0" /><path
         id="path5432"
         d="m 280.54,661.64 -1.4,-0.11 0,-0.31 c 0.65,0 0.74,-0.06 0.74,-0.55 l 0,-2.68 c 0,-0.45 -0.11,-0.45 -0.78,-0.45 l 0,-0.31 c 0.32,0.01 0.86,0.03 1.1,0.03 0.35,0 0.7,-0.02 1.04,-0.03 l 0,0.31 c -0.66,0 -0.7,0.05 -0.7,0.44 z"
         inkscape:connector-curvature="0"
         style="fill:#000000;stroke-width:0" /><path
         id="path5434"
         d="m 280.58,663.37 0,0.03 0,0.03 -0.01,0.03 0,0.02 -0.01,0.03 -0.01,0.03 -0.01,0.02 -0.01,0.03 -0.01,0.02 -0.01,0.02 -0.01,0.02 -0.02,0.03 -0.01,0.02 -0.02,0.02 -0.01,0.01 -0.02,0.02 -0.02,0.02 -0.02,0.02 -0.02,0.01 -0.02,0.01 -0.02,0.02 -0.02,0.01 -0.03,0.01 -0.02,0.01 -0.02,0.01 -0.03,0.01 -0.02,0 -0.03,0.01 -0.02,0 -0.03,0 -0.02,0.01 -0.03,0 c -0.31,0 -0.53,-0.27 -0.53,-0.53 0,-0.27 0.22,-0.53 0.53,-0.53 0.28,0 0.53,0.21 0.53,0.53 z"
         inkscape:connector-curvature="0"
         style="fill:#000000;stroke-width:0" /><path
         id="path5436"
         d="m 286.23,659.36 0,0.12 -0.01,0.12 -0.01,0.12 -0.02,0.11 -0.02,0.11 -0.03,0.11 -0.04,0.11 -0.04,0.11 -0.04,0.1 -0.05,0.1 -0.06,0.1 -0.05,0.09 -0.07,0.09 -0.06,0.09 -0.07,0.09 -0.07,0.08 -0.08,0.08 -0.08,0.07 -0.08,0.07 -0.09,0.06 -0.09,0.07 -0.09,0.05 -0.1,0.05 -0.09,0.05 -0.1,0.04 -0.11,0.04 -0.1,0.03 -0.11,0.03 -0.1,0.02 -0.11,0.01 -0.11,0.01 -0.12,0.01 -0.01,-0.22 c 0.44,0 0.87,-0.22 1.13,-0.65 0.26,-0.43 0.26,-1.01 0.26,-1.39 0,-0.35 0,-0.89 -0.22,-1.33 -0.22,-0.45 -0.66,-0.74 -1.16,-0.74 l 0,0 c -0.42,0 -0.86,0.21 -1.13,0.67 -0.25,0.44 -0.25,1.05 -0.25,1.4 0,0.39 0,0.93 0.24,1.37 0.27,0.46 0.73,0.67 1.13,0.67 l 0.01,0.22 c -1.24,0 -2.21,-1.09 -2.21,-2.34 0,-1.28 1.04,-2.24 2.2,-2.24 1.21,0 2.21,0.98 2.21,2.24 z"
         inkscape:connector-curvature="0"
         style="fill:#000000;stroke-width:0" /><path
         id="path5438"
         d="m 287.62,660.66 0,-2.67 c 0,-0.45 -0.11,-0.45 -0.78,-0.45 l 0,-0.31 c 0.35,0.01 0.86,0.03 1.13,0.03 0.26,0 0.77,-0.02 1.11,-0.03 l 0,0.31 c -0.66,0 -0.77,0 -0.77,0.45 l 0,1.83 c 0,1.04 0.7,1.6 1.34,1.6 0.63,0 0.74,-0.54 0.74,-1.11 l 0,-2.32 c 0,-0.45 -0.11,-0.45 -0.78,-0.45 l 0,-0.31 c 0.35,0.01 0.86,0.03 1.13,0.03 0.26,0 0.77,-0.02 1.11,-0.03 l 0,0.31 c -0.52,0 -0.77,0 -0.77,0.3 l 0,1.9 c 0,0.86 0,1.17 -0.31,1.53 -0.14,0.17 -0.47,0.37 -1.05,0.37 -0.73,0 -1.2,-0.43 -1.47,-1.05 l 0,1.05 -1.41,-0.11 0,-0.31 c 0.7,0 0.78,-0.07 0.78,-0.56 z"
         inkscape:connector-curvature="0"
         style="fill:#000000;stroke-width:0" /><path
         id="path5440"
         d="m 300.08,659.36 0,0.12 -0.01,0.12 -0.02,0.12 -0.02,0.11 -0.02,0.11 -0.03,0.11 -0.03,0.11 -0.04,0.11 -0.05,0.1 -0.05,0.1 -0.05,0.1 -0.06,0.09 -0.06,0.09 -0.07,0.09 -0.07,0.09 -0.07,0.08 -0.08,0.08 -0.08,0.07 -0.08,0.07 -0.09,0.06 -0.08,0.07 -0.1,0.05 -0.09,0.05 -0.1,0.05 -0.1,0.04 -0.1,0.04 -0.11,0.03 -0.1,0.03 -0.11,0.02 -0.11,0.01 -0.11,0.01 -0.11,0.01 -0.01,-0.22 c 0.44,0 0.86,-0.22 1.12,-0.65 0.26,-0.43 0.26,-1.01 0.26,-1.39 0,-0.35 0,-0.89 -0.22,-1.33 -0.21,-0.45 -0.65,-0.74 -1.15,-0.74 l 0,0 c -0.43,0 -0.87,0.21 -1.14,0.67 -0.25,0.44 -0.25,1.05 -0.25,1.4 0,0.39 0,0.93 0.24,1.37 0.27,0.46 0.74,0.67 1.14,0.67 l 0.01,0.22 c -1.25,0 -2.21,-1.09 -2.21,-2.34 0,-1.28 1.03,-2.24 2.2,-2.24 1.2,0 2.21,0.98 2.21,2.24 z"
         inkscape:connector-curvature="0"
         style="fill:#000000;stroke-width:0" /><path
         id="path5442"
         d="m 302.11,661.53 0,1.15 c 0,0.88 0.48,1.36 0.92,1.36 0.03,0 0.18,0 0.33,-0.07 -0.12,-0.04 -0.3,-0.17 -0.3,-0.42 0,-0.23 0.16,-0.43 0.43,-0.43 0.28,0 0.43,0.2 0.43,0.44 0,0.37 -0.36,0.7 -0.89,0.7 -0.7,0 -1.55,-0.53 -1.55,-1.59 l 0,-1.14 -0.78,0 0,-0.31 0.78,0 0,-3.23 c 0,-0.45 -0.11,-0.45 -0.77,-0.45 l 0,-0.31 c 0.39,0.01 0.85,0.03 1.13,0.03 0.4,0 0.87,0 1.27,-0.03 l 0,0.31 -0.21,0 c -0.74,0 -0.76,0.11 -0.76,0.47 l 0,3.21 1.14,0 0,0.31 z"
         inkscape:connector-curvature="0"
         style="fill:#000000;stroke-width:0" /><path
         id="path5444"
         d="m 227.22,645.83 0,-0.66 1.46,0.11 0,0.31 c -0.69,0 -0.77,0.07 -0.77,0.55 l 0,6.05 -1.44,-0.11 0,-0.31 c 0.7,0 0.78,-0.07 0.78,-0.55 l 0,-2.16 c -0.29,0.36 -0.72,0.62 -1.26,0.62 l 0.04,-0.22 c 0.35,0 0.77,-0.15 1.08,-0.6 0.11,-0.16 0.11,-0.19 0.11,-0.37 l 0,0 0,-2.04 c 0,-0.18 0,-0.2 -0.11,-0.36 -0.3,-0.48 -0.75,-0.7 -1.18,-0.7 -0.44,0 -0.8,0.26 -1.04,0.64 -0.26,0.4 -0.29,0.97 -0.29,1.38 0,0.37 0.02,0.97 0.31,1.41 0.21,0.31 0.58,0.64 1.12,0.64 l -0.04,0.22 c -1.17,0 -2.22,-0.97 -2.22,-2.26 0,-1.27 0.98,-2.25 2.11,-2.25 0.64,0 1.09,0.34 1.34,0.66 z"
         inkscape:connector-curvature="0"
         style="fill:#000000;stroke-width:0" /><path
         id="path5446"
         d="m 232.29,646.03 0,-0.03 0.01,-0.04 0,-0.04 0.01,-0.03 0.01,-0.04 0.01,-0.04 0.01,-0.04 0.02,-0.03 0.01,-0.04 0.02,-0.03 0.02,-0.04 0.02,-0.03 0.02,-0.03 0.02,-0.03 0.02,-0.03 0.02,-0.03 0.03,-0.03 0.02,-0.03 0.03,-0.02 0.03,-0.03 0.03,-0.02 0.03,-0.02 0.04,-0.02 0.03,-0.02 0.03,-0.02 0.04,-0.01 0.04,-0.01 0.04,-0.01 0.04,-0.01 0.04,-0.01 0.04,0 0.04,0 c 0.21,0 0.82,0.14 0.82,0.94 l 0,0.56 -0.25,0 0,-0.56 c 0,-0.57 -0.25,-0.63 -0.36,-0.63 -0.33,0 -0.37,0.44 -0.37,0.5 l 0,1.99 c 0,0.42 0,0.8 -0.36,1.17 -0.38,0.39 -0.88,0.55 -1.36,0.55 -0.82,0 -1.5,-0.47 -1.5,-1.13 0,-0.29 0.19,-0.46 0.45,-0.46 0.28,0 0.46,0.2 0.46,0.45 0,0.12 -0.05,0.45 -0.51,0.46 0.27,0.35 0.76,0.46 1.08,0.46 0.49,0 1.05,-0.39 1.05,-1.27 l 0,-0.37 0,-0.21 0,-1 c 0,-0.94 -0.71,-1.28 -1.16,-1.28 -0.49,0 -0.9,0.35 -0.9,0.84 0,0.55 0.42,1.38 2.06,1.44 l 0,0 0,0.21 c -0.5,-0.03 -1.2,-0.06 -1.83,-0.36 -0.75,-0.34 -0.99,-0.86 -0.99,-1.3 0,-0.8 0.96,-1.05 1.59,-1.05 0.66,0 1.12,0.4 1.31,0.86 z"
         inkscape:connector-curvature="0"
         style="fill:#000000;stroke-width:0" /><path
         id="path5448"
         d="m 235.67,649.26 1.43,0 0,0.31 -1.43,0 0,1.83 -0.25,0 c -0.01,-0.81 -0.31,-1.88 -1.28,-1.92 l 0,-0.22 0.84,0 0,-2.75 c 0,-1.22 0.93,-1.34 1.29,-1.34 0.71,0 0.99,0.71 0.99,1.34 l 0,0.57 -0.25,0 0,-0.55 c 0,-0.73 -0.3,-1.11 -0.67,-1.11 -0.67,0 -0.67,0.9 -0.67,1.07 z"
         inkscape:connector-curvature="0"
         style="fill:#000000;stroke-width:0" /><path
         id="path5450"
         d="m 241.14,646.03 0.01,-0.03 0,-0.04 0.01,-0.04 0.01,-0.03 0.01,-0.04 0.01,-0.04 0.01,-0.04 0.01,-0.03 0.02,-0.04 0.02,-0.03 0.01,-0.04 0.02,-0.03 0.02,-0.03 0.02,-0.03 0.03,-0.03 0.02,-0.03 0.03,-0.03 0.02,-0.03 0.03,-0.02 0.03,-0.03 0.03,-0.02 0.03,-0.02 0.03,-0.02 0.04,-0.02 0.03,-0.02 0.04,-0.01 0.03,-0.01 0.04,-0.01 0.04,-0.01 0.04,-0.01 0.05,0 0.04,0 c 0.21,0 0.82,0.14 0.82,0.94 l 0,0.56 -0.25,0 0,-0.56 c 0,-0.57 -0.25,-0.63 -0.36,-0.63 -0.33,0 -0.37,0.44 -0.37,0.5 l 0,1.99 c 0,0.42 0,0.8 -0.36,1.17 -0.39,0.39 -0.89,0.55 -1.36,0.55 -0.82,0 -1.51,-0.47 -1.51,-1.13 0,-0.29 0.2,-0.46 0.46,-0.46 0.28,0 0.46,0.2 0.46,0.45 0,0.12 -0.05,0.45 -0.51,0.46 0.27,0.35 0.76,0.46 1.08,0.46 0.49,0 1.05,-0.39 1.05,-1.27 l 0,-0.37 0,-0.21 0,-1 c 0,-0.94 -0.72,-1.28 -1.16,-1.28 -0.49,0 -0.9,0.35 -0.9,0.84 0,0.55 0.42,1.38 2.06,1.44 l 0,0 0,0.21 c -0.5,-0.03 -1.2,-0.06 -1.83,-0.36 -0.75,-0.34 -1,-0.86 -1,-1.3 0,-0.8 0.97,-1.05 1.6,-1.05 0.65,0 1.11,0.4 1.3,0.86 z"
         inkscape:connector-curvature="0"
         style="fill:#000000;stroke-width:0" /><path
         id="path5452"
         d="m 248.19,647.21 0.02,0 0.03,-0.01 0.03,0 0.03,-0.01 0.03,-0.01 0.04,-0.01 0.04,-0.01 0.04,-0.01 0.04,-0.01 0.04,-0.02 0.04,-0.01 0.05,-0.02 0.04,-0.02 0.04,-0.02 0.05,-0.02 0.04,-0.02 0.05,-0.03 0.04,-0.03 0.04,-0.03 0.04,-0.03 0.04,-0.04 0.03,-0.03 0.04,-0.04 0.03,-0.05 0.03,-0.04 0.01,-0.02 0.01,-0.03 0.01,-0.02 0.01,-0.03 0.01,-0.03 0.01,-0.02 0.01,-0.03 0.01,-0.03 0,-0.03 0.01,-0.03 0,-0.03 0.01,-0.03 0,-0.03 0,-0.04 c 0,-0.5 -0.35,-0.9 -1.13,-0.9 -0.83,0 -1.19,0.57 -1.38,1.41 -0.03,0.13 -0.04,0.17 -0.14,0.17 -0.13,0 -0.13,-0.07 -0.13,-0.25 l 0,-1.31 c 0,-0.17 0,-0.24 0.11,-0.24 0.05,0 0.06,0.01 0.25,0.2 0.02,0.02 0.02,0.04 0.2,0.23 0.44,-0.42 0.88,-0.43 1.09,-0.43 1.15,0 1.61,0.67 1.61,1.38 0,0.53 -0.3,0.83 -0.42,0.95 -0.33,0.32 -0.72,0.4 -1.14,0.48 -0.56,0.11 -1.22,0.24 -1.22,0.81 0,0.35 0.26,0.76 1.11,0.76 1.1,0 1.15,-0.89 1.17,-1.2 0.01,-0.09 0.1,-0.09 0.12,-0.09 0.13,0 0.13,0.05 0.13,0.23 l 0,1.01 c 0,0.17 0,0.24 -0.11,0.24 -0.05,0 -0.07,0 -0.2,-0.12 -0.03,-0.04 -0.13,-0.13 -0.17,-0.16 -0.38,0.28 -0.79,0.28 -0.94,0.28 -1.21,0 -1.59,-0.67 -1.59,-1.22 0,-0.35 0.16,-0.63 0.43,-0.85 0.32,-0.26 0.6,-0.32 1.31,-0.46 z"
         inkscape:connector-curvature="0"
         style="fill:#000000;stroke-width:0" /><path
         id="path5454"
         d="m 251.77,649.26 1.43,0 0,0.31 -1.43,0 0,1.83 -0.25,0 c -0.01,-0.81 -0.3,-1.88 -1.28,-1.92 l 0,-0.22 0.85,0 0,-2.75 c 0,-1.22 0.92,-1.34 1.28,-1.34 0.71,0 0.99,0.71 0.99,1.34 l 0,0.57 -0.25,0 0,-0.55 c 0,-0.73 -0.3,-1.11 -0.67,-1.11 -0.67,0 -0.67,0.9 -0.67,1.07 z"
         inkscape:connector-curvature="0"
         style="fill:#000000;stroke-width:0" /><path
         id="path5456"
         d="m 255.59,648.59 0,1.09 -1.38,-0.11 0,-0.31 c 0.69,0 0.77,-0.07 0.77,-0.55 l 0,-2.68 c 0,-0.44 -0.11,-0.44 -0.77,-0.44 l 0,-0.31 c 0.39,0.01 0.85,0.03 1.13,0.03 0.4,0 0.87,0 1.27,-0.03 l 0,0.31 -0.21,0 c -0.74,0 -0.76,0.11 -0.76,0.46 l 0,1.54 c 0,0.99 0.42,1.87 1.18,1.87 0.07,0 0.09,0 0.11,-0.01 -0.03,-0.01 -0.23,-0.13 -0.23,-0.39 0,-0.28 0.21,-0.42 0.42,-0.42 0.18,0 0.43,0.11 0.43,0.43 0,0.32 -0.31,0.61 -0.73,0.61 -0.73,0 -1.09,-0.67 -1.23,-1.09 z"
         inkscape:connector-curvature="0"
         style="fill:#000000;stroke-width:0" /><path
         id="path5458"
         d="m 261.72,646.07 0,-0.9 1.44,0.11 0,0.31 c -0.7,0 -0.78,0.07 -0.78,0.55 l 0,3.54 -1.46,-0.11 0,-0.31 c 0.69,0 0.77,-0.07 0.77,-0.55 l 0,-1.78 c 0,-0.86 -0.48,-1.54 -1.2,-1.54 -0.84,0 -0.88,0.46 -0.88,0.98 l 0,3.31 -1.46,-0.11 0,-0.31 c 0.77,0 0.77,-0.03 0.77,-0.91 l 0,-1.5 c 0,-0.77 0,-1.68 1.52,-1.68 0.56,0 0.99,0.28 1.28,0.9 z"
         inkscape:connector-curvature="0"
         style="fill:#000000;stroke-width:0" /><path
         id="path5460"
         d="m 264.53,647.45 0,0.07 0,0.08 0,0.07 0.01,0.07 0,0.07 0.01,0.06 0.01,0.07 0,0.06 0.01,0.06 0.01,0.06 0.01,0.06 0.02,0.06 0.02,0.11 0.03,0.1 0.04,0.1 0.03,0.09 0.04,0.09 0.04,0.08 0.05,0.07 0.04,0.07 0.05,0.07 0.05,0.06 0.05,0.05 0.06,0.06 0.05,0.04 0.06,0.04 0.05,0.04 0.06,0.04 0.05,0.03 0.06,0.02 0.06,0.02 0.05,0.02 0.06,0.02 0.05,0.01 0.06,0.01 0.05,0.01 0.05,0 0.05,0 c 0.09,0 0.72,-0.01 1.07,-0.37 -0.41,-0.03 -0.47,-0.33 -0.47,-0.46 0,-0.25 0.18,-0.45 0.46,-0.45 0.26,0 0.46,0.17 0.46,0.46 0,0.68 -0.76,1.07 -1.53,1.07 -1.24,0 -2.16,-1.08 -2.16,-2.31 0,-1.28 0.99,-2.26 2.14,-2.26 1.34,0 1.66,1.19 1.66,1.29 0,0.1 -0.1,0.1 -0.13,0.1 -0.09,0 -0.11,-0.04 -0.13,-0.1 -0.29,-0.92 -0.94,-1.04 -1.31,-1.04 -0.53,0 -1.4,0.42 -1.4,2.03 z"
         inkscape:connector-curvature="0"
         style="fill:#000000;stroke-width:0" /><path
         id="path5462"
         d="m 269.51,649.26 1.43,0 0,0.31 -1.43,0 0,1.83 -0.25,0 c -0.01,-0.81 -0.31,-1.88 -1.28,-1.92 l 0,-0.22 0.84,0 0,-2.75 c 0,-1.22 0.93,-1.34 1.29,-1.34 0.71,0 0.99,0.71 0.99,1.34 l 0,0.57 -0.25,0 0,-0.55 c 0,-0.73 -0.3,-1.11 -0.67,-1.11 -0.67,0 -0.67,0.9 -0.67,1.07 z"
         inkscape:connector-curvature="0"
         style="fill:#000000;stroke-width:0" /><path
         id="path5464"
         d="m 275.56,646.07 0,-0.9 1.43,0.11 0,0.31 c -0.69,0 -0.77,0.07 -0.77,0.55 l 0,3.54 -1.47,-0.11 0,-0.31 c 0.7,0 0.78,-0.07 0.78,-0.55 l 0,-1.78 c 0,-0.86 -0.48,-1.54 -1.2,-1.54 -0.84,0 -0.88,0.46 -0.88,0.98 l 0,3.31 -1.47,-0.11 0,-0.31 c 0.78,0 0.78,-0.03 0.78,-0.91 l 0,-1.5 c 0,-0.77 0,-1.68 1.51,-1.68 0.56,0 1,0.28 1.29,0.9 z"
         inkscape:connector-curvature="0"
         style="fill:#000000;stroke-width:0" /><path
         id="path5466"
         d="m 278.86,648.59 0,1.09 -1.38,-0.11 0,-0.31 c 0.7,0 0.78,-0.07 0.78,-0.55 l 0,-2.68 c 0,-0.44 -0.11,-0.44 -0.78,-0.44 l 0,-0.31 c 0.39,0.01 0.86,0.03 1.13,0.03 0.4,0 0.87,0 1.27,-0.03 l 0,0.31 -0.21,0 c -0.74,0 -0.76,0.11 -0.76,0.46 l 0,1.54 c 0,0.99 0.42,1.87 1.18,1.87 0.07,0 0.09,0 0.11,-0.01 -0.03,-0.01 -0.23,-0.13 -0.23,-0.39 0,-0.28 0.21,-0.42 0.43,-0.42 0.18,0 0.43,0.11 0.43,0.43 0,0.32 -0.31,0.61 -0.74,0.61 -0.73,0 -1.09,-0.67 -1.23,-1.09 z"
         inkscape:connector-curvature="0"
         style="fill:#000000;stroke-width:0" /><path
         id="path5468"
         d="m 282.21,647.58 0.01,0.21 c 0.06,1.48 0.89,1.73 1.23,1.73 1.03,0 1.13,-1.34 1.13,-1.73 l -2.36,0 -0.01,-0.21 2.77,0 c 0.22,0 0.25,0 0.25,0.21 0,0.98 -0.53,1.95 -1.78,1.95 -1.15,0 -2.07,-1.02 -2.07,-2.27 0,-1.34 1.04,-2.3 2.19,-2.3 1.22,0 1.66,1.1 1.66,1.29 0,0.1 -0.08,0.12 -0.12,0.12 -0.09,0 -0.12,-0.06 -0.13,-0.14 -0.35,-1.02 -1.25,-1.02 -1.35,-1.02 -0.5,0 -0.9,0.3 -1.12,0.67 -0.3,0.47 -0.3,1.13 -0.3,1.49 z"
         inkscape:connector-curvature="0"
         style="fill:#000000;stroke-width:0" /><path
         id="path5470"
         d="m 287.61,647.21 0.02,0 0.02,-0.01 0.03,0 0.03,-0.01 0.04,-0.01 0.03,-0.01 0.04,-0.01 0.04,-0.01 0.04,-0.01 0.04,-0.02 0.05,-0.01 0.04,-0.02 0.04,-0.02 0.05,-0.02 0.04,-0.02 0.05,-0.02 0.04,-0.03 0.04,-0.03 0.04,-0.03 0.04,-0.03 0.04,-0.04 0.03,-0.03 0.04,-0.04 0.03,-0.05 0.03,-0.04 0.01,-0.02 0.01,-0.03 0.02,-0.02 0.01,-0.03 0.01,-0.03 0.01,-0.02 0,-0.03 0.01,-0.03 0.01,-0.03 0,-0.03 0.01,-0.03 0,-0.03 0,-0.03 0,-0.04 c 0,-0.5 -0.35,-0.9 -1.12,-0.9 -0.84,0 -1.2,0.57 -1.39,1.41 -0.03,0.13 -0.04,0.17 -0.14,0.17 -0.13,0 -0.13,-0.07 -0.13,-0.25 l 0,-1.31 c 0,-0.17 0,-0.24 0.11,-0.24 0.05,0 0.06,0.01 0.25,0.2 0.02,0.02 0.02,0.04 0.2,0.23 0.44,-0.42 0.89,-0.43 1.1,-0.43 1.14,0 1.6,0.67 1.6,1.38 0,0.53 -0.3,0.83 -0.42,0.95 -0.33,0.32 -0.72,0.4 -1.13,0.48 -0.56,0.11 -1.23,0.24 -1.23,0.81 0,0.35 0.26,0.76 1.11,0.76 1.1,0 1.15,-0.89 1.17,-1.2 0.01,-0.09 0.1,-0.09 0.12,-0.09 0.13,0 0.13,0.05 0.13,0.23 l 0,1.01 c 0,0.17 0,0.24 -0.11,0.24 -0.05,0 -0.07,0 -0.2,-0.12 -0.03,-0.04 -0.13,-0.13 -0.17,-0.16 -0.38,0.28 -0.78,0.28 -0.94,0.28 -1.21,0 -1.59,-0.67 -1.59,-1.22 0,-0.35 0.16,-0.63 0.43,-0.85 0.32,-0.26 0.6,-0.32 1.32,-0.46 z"
         inkscape:connector-curvature="0"
         style="fill:#000000;stroke-width:0" /></g>  </g>
</svg>
